<svg xmlns="http://www.w3.org/2000/svg" xmlns:xlink="http://www.w3.org/1999/xlink" version="1.1" id="Layer_1" x="0px" y="0px" width="200px" height="102.599px" viewBox="0 0 200 102.599" enable-background="new 0 0 200 102.599" xml:space="preserve"><g><g><path fill="#485156" d="M5.471 86.245H0.003v-3.214h14.641v3.214H9.175v16.064H5.471V86.245z"/><path fill="#485156" d="M17.141 83.031h11.994v3.214h-8.29v4.66h7.643v3.214h-7.643v4.977h8.29v3.214H17.141V83.031z M21.227 79.818c1.382-0.841 2.734-1.679 3.91-2.577l1.382 2.143c-1.323 0.957-2.411 1.592-3.998 2.403L21.227 79.818z"/><path fill="#485156" d="M32.072 88.328c0-3.531 2.087-5.586 6.967-5.586c1.823 0 3.7 0.2 5.3 0.637l-0.412 3.2 c-1.588-0.289-3.44-0.493-4.792-0.493c-2.558 0-3.381 0.868-3.381 2.926v7.411c0 2.1 0.8 2.9 3.4 2.9 c1.352 0 3.204-0.204 4.792-0.493l0.412 3.157c-1.618 0.405-3.499 0.635-5.322 0.635c-4.88 0-6.967-2.055-6.967-5.586V88.328z"/><path fill="#485156" d="M51.062 87.69v14.619h-3.616V83.031h4.939l7.437 14.648V83.031h3.616v19.278h-4.939L51.062 87.69z"/><path fill="#485156" d="M71.255 102.31h-3.705V83.031h3.705V102.31z"/><path fill="#485156" d="M74.928 88.328c0-3.531 2.087-5.586 6.968-5.586c1.823 0 3.7 0.2 5.3 0.637l-0.412 3.2 c-1.587-0.289-3.44-0.493-4.792-0.493c-2.558 0-3.382 0.868-3.382 2.926v7.411c0 2.1 0.8 2.9 3.4 2.9 c1.352 0 3.205-0.204 4.792-0.493l0.412 3.157c-1.618 0.405-3.499 0.635-5.322 0.635c-4.881 0-6.968-2.055-6.968-5.586V88.328z"/><path fill="#485156" d="M104.237 96.667c0 3.212-1.882 5.932-7.408 5.932c-5.528 0-7.41-2.72-7.41-5.932v-7.991 c0-3.212 1.882-5.934 7.41-5.934c5.526 0 7.4 2.7 7.4 5.934V96.667z M93.124 96.463c0 1.8 0.9 2.9 3.7 2.9 c2.762 0 3.703-1.1 3.703-2.924v-7.585c0-1.822-0.941-2.924-3.703-2.924c-2.764 0-3.706 1.102-3.706 2.924V96.463z"/><path fill="#485156" d="M115.964 100.777h8.818v1.532h-10.553V83.031h1.734V100.777z"/><path fill="#485156" d="M130.455 102.31h-1.736V83.031h1.736V102.31z"/><path fill="#485156" d="M140.801 102.599c-1.704 0-3.85-0.289-5.525-0.926l0.322-1.391c1.765 0.5 3.6 0.8 5.3 0.8 c3.352 0 4.264-0.984 4.264-3.443c0-2.982-0.03-3.301-4.381-4.286c-4.733-1.07-5.263-1.911-5.263-5.789 c0-3.155 1.176-4.805 6.086-4.805c1.705 0 3.7 0.3 5.1 0.667l-0.206 1.445c-1.44-0.316-3.264-0.577-4.793-0.577 c-3.881 0-4.41 0.926-4.41 3.326c0 3.1 0.1 3.3 4.2 4.284c5.145 1.3 5.4 2 5.4 5.6 C146.858 100.7 145.8 102.6 140.8 102.599z"/><path fill="#485156" d="M151.527 102.31V83.031h7.352c2.646 0 4.2 1.2 4.2 3.793v2.314c0 1.535-0.647 2.548-2.235 3.1 c1.529 0.2 2.9 1.4 2.9 3.59v2.519c0 2.662-1.971 3.936-4.499 3.936H151.527z M161.349 86.6 c0-1.333-0.766-2.055-2.44-2.055h-5.645v7.148h5.056c2.146 0 3.029-1.1 3.029-2.635V86.593z M161.966 95.9 c0-1.622-0.971-2.722-3.234-2.722h-5.468v7.613h5.969c1.851 0 2.733-0.896 2.733-2.431V95.913z"/><path fill="#485156" d="M174.193 102.599c-5.027 0-6.851-2.429-6.851-5.73v-8.394c0-3.3 1.823-5.732 6.851-5.732 s6.85 2.4 6.8 5.732v8.394C181.043 100.2 179.2 102.6 174.2 102.599z M179.309 96.812v-8.28 c0-2.749-1.352-4.254-5.115-4.254s-5.116 1.505-5.116 4.254v8.28c0 2.7 1.4 4.3 5.1 4.254S179.309 99.6 179.3 96.812z "/><path fill="#485156" d="M196.445 97.244h-9.114l-1.822 5.065h-1.705l6.82-19.278h2.559l6.82 19.278h-1.705L196.445 97.244z M187.86 95.769h8.057l-4.027-11.753L187.86 95.769z"/></g><path fill-rule="evenodd" clip-rule="evenodd" fill="#009EE2" d="M100.009 66.291c0 0-27.354-13.418-27.354-38.469 c0-16.909 0-27.822 0-27.822h54.81c0 0 0 10.9 0 27.822C127.465 52.9 100 66.3 100 66.291z"/><polygon fill="#FFFFFF" points="114.6,20.9 112.4,20.9 112.4,38.1 107.4,38.1 107.4,20.9 105.2,20.9 105.2,17.5 114.6,17.5"/><polygon fill="#FFFFFF" points="92.6,38.1 87.7,38.1 87.7,17.5 92.6,17.5"/><path fill="#FFFFFF" d="M104.942 5.826c-4.085 0-7.396 2.118-7.396 6.203l-0.002 31.532c0 3.5 0 5.179-2.458 5.2 c-2.286 0-2.487-1.711-2.487-4.231h0c0-1.36-1.105-2.467-2.466-2.467s-2.466 1.106-2.466 2.467h-0.004 c0 3.5 3.3 5.3 7.4 5.257c4.084 0 7.396-2.117 7.396-6.204l0.002-31.532c0-3.46-0.001-5.177 2.457-5.177 c2.286 0 2.5 1.7 2.5 4.231h0.003c0 1.4 1.1 2.5 2.5 2.465s2.466-1.103 2.466-2.465h0.004 C112.366 7.6 109 5.8 104.9 5.826z"/></g></svg>