<svg xmlns="http://www.w3.org/2000/svg" xmlns:xlink="http://www.w3.org/1999/xlink" version="1.1" id="Layer_1" x="0px" y="0px" width="200px" height="46.196px" viewBox="0 0 200 46.196" enable-background="new 0 0 200 46.196" xml:space="preserve"><g><path fill-rule="evenodd" clip-rule="evenodd" fill="#0F9AD7" d="M0 0c0 0 0 7.6 0 19.388c0 17.5 19.1 26.8 19.1 26.8 s19.133-9.352 19.133-26.809c0-11.783 0-19.388 0-19.388H0z M10.464 12.188h3.432L13.9 26.534h-3.44L10.464 12.188z M20.788 8.4 l-0.001 21.975c0 2.848-2.308 4.322-5.154 4.322c-2.846 0-5.174-1.244-5.174-3.662h0.003c0-0.949 0.77-1.72 1.718-1.72 c0.949 0 1.7 0.8 1.7 1.72h0.001c0 1.8 0.1 2.9 1.7 2.947c1.712 0 1.712-1.196 1.712-3.607l0.001-21.975 c0-2.846 2.307-4.322 5.153-4.322c2.846 0 5.2 1.2 5.2 3.663h-0.003c0 0.949-0.769 1.719-1.719 1.7 c-0.948 0-1.717-0.77-1.717-1.719h-0.002c0-1.756-0.14-2.947-1.733-2.947C20.787 4.8 20.8 6 20.8 8.382z M29.265 14.6 h-1.59v11.956h-3.442V14.587h-1.587v-2.398h6.62V14.587z"/><g><path fill="#465560" d="M55.507 14.618h-4.061v-2.386h10.873v2.386h-4.061v11.935h-2.751V14.618z"/><path fill="#465560" d="M64.175 12.232h8.907v2.386h-6.157v3.463h5.677v2.387h-5.677v3.699h6.157v2.386h-8.907V12.232z M67.209 9.846c1.026-0.624 2.03-1.247 2.904-1.914l1.026 1.591c-0.982 0.71-1.79 1.183-2.969 1.785L67.209 9.846z"/><path fill="#465560" d="M75.266 16.167c0-2.623 1.55-4.149 5.174-4.149c1.354 0 2.8 0.2 4 0.474l-0.306 2.3 c-1.18-0.217-2.555-0.366-3.56-0.366c-1.899 0-2.511 0.645-2.511 2.172v5.505c0 1.5 0.6 2.2 2.5 2.2 c1.005 0 2.38-0.149 3.56-0.366l0.306 2.345c-1.202 0.301-2.599 0.474-3.953 0.474c-3.624 0-5.174-1.527-5.174-4.15V16.167z"/><path fill="#465560" d="M89.371 15.694v10.858h-2.686v-14.32h3.668l5.523 10.88v-10.88h2.686v14.32h-3.668L89.371 15.694z"/><path fill="#465560" d="M104.369 26.553h-2.75v-14.32h2.75V26.553z"/><path fill="#465560" d="M107.1 16.167c0-2.623 1.551-4.149 5.174-4.149c1.354 0 2.8 0.2 4 0.474l-0.307 2.3 c-1.178-0.217-2.555-0.366-3.559-0.366c-1.898 0-2.512 0.645-2.512 2.172v5.505c0 1.5 0.6 2.2 2.5 2.2 c1.004 0 2.381-0.149 3.559-0.366l0.307 2.345c-1.201 0.301-2.6 0.474-3.953 0.474c-3.623 0-5.174-1.527-5.174-4.15V16.167z"/><path fill="#465560" d="M128.867 22.359c0 2.387-1.398 4.409-5.502 4.409c-4.105 0-5.502-2.022-5.502-4.409v-5.934 c0-2.388 1.396-4.408 5.502-4.408c4.104 0 5.5 2 5.5 4.408V22.359z M120.613 22.209c0 1.4 0.7 2.2 2.8 2.2 s2.75-0.816 2.75-2.172v-5.634c0-1.354-0.697-2.171-2.75-2.171s-2.752 0.817-2.752 2.171V22.209z"/><path fill="#465560" d="M137.578 25.413h6.549v1.14h-7.836v-14.32h1.287V25.413z"/><path fill="#465560" d="M148.342 26.553h-1.287v-14.32h1.287V26.553z"/><path fill="#465560" d="M156.027 26.769c-1.266 0-2.859-0.216-4.104-0.689l0.24-1.032c1.309 0.4 2.6 0.6 3.9 0.6 c2.488 0 3.166-0.73 3.166-2.559c0-2.215-0.023-2.451-3.254-3.183c-3.516-0.795-3.908-1.42-3.908-4.3 c0-2.345 0.873-3.569 4.52-3.569c1.266 0 2.8 0.2 3.8 0.494l-0.154 1.075c-1.068-0.236-2.422-0.43-3.559-0.43 c-2.881 0-3.273 0.688-3.273 2.472c0 2.3 0.1 2.4 3.1 3.183c3.82 0.9 4 1.5 4 4.2 C160.525 25.3 159.7 26.8 156 26.769z"/><path fill="#465560" d="M163.998 26.553v-14.32h5.457c1.965 0 3.1 0.9 3.1 2.816v1.721c0 1.139-0.479 1.893-1.658 2.3 c1.135 0.1 2.1 1.1 2.1 2.666v1.87c0 1.979-1.463 2.925-3.34 2.925H163.998z M171.289 14.9 c0-0.989-0.566-1.526-1.812-1.526h-4.191v5.312h3.756c1.594 0 2.248-0.817 2.248-1.958V14.877z M171.748 21.8 c0-1.204-0.721-2.021-2.402-2.021h-4.061v5.655h4.432c1.377 0 2.031-0.666 2.031-1.807V21.801z"/><path fill="#465560" d="M180.83 26.769c-3.732 0-5.086-1.807-5.086-4.258v-6.236c0-2.451 1.354-4.257 5.086-4.257 c3.734 0 5.1 1.8 5.1 4.257v6.236C185.918 25 184.6 26.8 180.8 26.769z M184.629 22.467v-6.149 c0-2.042-1.004-3.16-3.799-3.16s-3.799 1.118-3.799 3.16v6.149c0 2 1 3.2 3.8 3.161S184.629 24.5 184.6 22.467z"/><path fill="#465560" d="M197.357 22.79h-6.768l-1.354 3.763h-1.268l5.066-14.32h1.898L200 26.553h-1.266L197.357 22.79z M190.982 21.693h5.982l-2.99-8.73L190.982 21.693z"/></g></g></svg>