<?xml version="1.0" encoding="utf-8"?>
<!-- Generator: Adobe Illustrator 15.0.0, SVG Export Plug-In . SVG Version: 6.00 Build 0)  -->
<!DOCTYPE svg PUBLIC "-//W3C//DTD SVG 1.1//EN" "http://www.w3.org/Graphics/SVG/1.1/DTD/svg11.dtd">
<svg version="1.1" xmlns="http://www.w3.org/2000/svg" xmlns:xlink="http://www.w3.org/1999/xlink" x="0px" y="0px" width="640px"
	 height="480px" viewBox="0 0 640 480" enable-background="new 0 0 640 480" xml:space="preserve">
<g id="svg548" xmlns:dc="http://purl.org/dc/elements/1.1/" xmlns:rdf="http://www.w3.org/1999/02/22-rdf-syntax-ns#" xmlns:cc="http://creativecommons.org/ns#">
</g>
<g id="Layer_2">
	<g>
		<path fill="#009900" d="M132.774,224.858l27.398-2.969l-22.543-15.387C135.519,212.412,133.882,218.544,132.774,224.858z"/>
		<path fill="#009900" d="M155.71,174.052l11.61,5.113v-17.632C163.146,165.409,159.263,169.593,155.71,174.052z"/>
		<path fill="#009900" d="M168.421,278.525c-0.53-2.903-0.881-5.861-1.022-8.872h-0.079v-2.884c0-0.097-0.008-0.191-0.008-0.287
			c0-0.097,0.007-0.19,0.008-0.287v-7.735l-35.814-3.812c0.862,9.9,2.999,19.437,6.249,28.444l5.656,0.56L168.421,278.525z"/>
		<path fill="#009900" d="M235.303,131.558c-23.476,1.917-44.926,10.958-62.186,24.946h62.186V131.558z"/>
		<path fill="#009900" d="M186.029,313.183l-34.374-3.4c18.872,26.804,49.076,45.083,83.648,47.907v-20.195
			C215.668,335.362,198.3,326.38,186.029,313.183z"/>
		<path fill="#009900" d="M240.755,379.231v0.907h-5.452v-2.393c-45.149-3.123-84.145-28.644-105.887-65.509l-0.383,0.078
			l-0.742-2.023c-9.902-17.456-15.979-37.355-17.076-58.569l-0.709,0.077l-0.263-5.632l0.419-0.046l-0.613-13.141l-0.419,0.045
			l-0.263-5.632l2.805-0.304c1.765-13.478,5.549-26.323,11.039-38.227l-3.43-1.511l3.375-5.234l0.354,0.156l7.876-12.213
			l-0.354-0.156l3.375-5.234l2.446,1.077c22.587-30.722,58.041-51.443,98.448-54.239v-2.46h5.452v1.801h6.906V0H0v480h247.661
			V379.231H240.755z"/>
		<path fill="#FF0000" d="M326.221,165.417c-1.57-1.606-3.185-3.168-4.847-4.68v4.527L326.221,165.417z"/>
		<path fill="#FF0000" d="M258.929,132.031v24.473h57.514C300.328,143.444,280.567,134.697,258.929,132.031z"/>
		<path fill="#FF0000" d="M258.929,336.701v20.513c29.97-3.692,56.325-19.039,74.38-41.351l-37.352,3.694
			C285.73,328.138,273.01,334.193,258.929,336.701z"/>
		<path fill="#FF0000" d="M321.374,212.607l32.993,1.599c-2.15-7.741-5.102-15.149-8.762-22.13l-24.231,2.396V212.607z"/>
		<path fill="#FF0000" d="M248.29,0h-0.628v110.85h5.816v-1.801h5.452v2.862c38.566,4.021,72.275,24.426,93.991,54.126l0.081-0.008
			l-0.006,0.111c0.03,0.041,0.061,0.082,0.091,0.123l4.359,0.137l1.604,5.041l-0.69-0.021l1.771,5.567
			c6.913,11.716,12.082,24.578,15.152,38.233l5.863,0.284l-0.073,5.629l-0.837-0.041l-0.17,13.134l0.837,0.041l-0.073,5.628
			l-2.391-0.116c0.052,1.469,0.088,2.941,0.092,4.422c0.003,0.149,0.003,0.275,0.003,0.425l-0.003,0.001
			c0.012,14.848-2.415,29.129-6.896,42.473l2.344,0.855l-2.434,5.23l-0.771-0.281l-5.68,12.205l0.771,0.281l-2.435,5.23l-0.66-0.24
			l-0.128,2.58l-3.11,0.308c-21.091,35.036-57.852,59.618-100.604,64.076v2.794h-5.452v-0.907h-5.816V480h0.628h391.713V0H248.29z"
			/>
		<path fill="#FF0000" d="M321.374,268.761l31.418,11.464c3.191-9.657,5.117-19.886,5.581-30.493l-36.999,3.66V268.761z"/>
		<polygon fill="#EFEF00" points="321.374,186.887 321.374,188.631 334.744,187.308 		"/>
		<path d="M353.001,166.029l-0.081,0.008c0.025,0.035,0.051,0.068,0.075,0.103L353.001,166.029z"/>
		<path d="M321.374,194.473l24.231-2.396c-0.349-0.666-0.7-1.329-1.062-1.986l-23.17,2.292V194.473z"/>
		<path d="M334.744,187.308l-13.37,1.323v2.096l22.286-2.204c-0.182-0.317-0.361-0.635-0.546-0.951L334.744,187.308z"/>
		<path fill="#EFEF00" d="M321.374,192.382l23.17-2.292c-0.289-0.526-0.587-1.047-0.884-1.567l-22.286,2.204V192.382z"/>
		<path fill="#EFEF00" d="M358.483,243.878c-0.01-1.7-0.057-3.391-0.141-5.073l-36.969-1.792v10.535L358.483,243.878z"/>
		<path d="M321.374,253.392l36.999-3.66c0.03-0.698,0.061-1.397,0.078-2.1l-37.077,3.668V253.392z"/>
		<path d="M321.374,249.646l37.099-3.671c0.006-0.449,0.017-0.898,0.017-1.35h0.003c0-0.127,0-0.234-0.003-0.361
			c0-0.129-0.005-0.257-0.006-0.386l-37.109,3.671V249.646z"/>
		<path fill="#EFEF00" d="M321.374,251.3l37.077-3.668c0.014-0.55,0.016-1.104,0.021-1.657l-37.099,3.671V251.3z"/>
		
			<rect x="313.245" y="297.725" transform="matrix(-0.9951 0.0985 -0.0985 -0.9951 667.3663 562.5122)" width="13.109" height="0.003"/>
		<path fill="#EFEF00" d="M302.778,313.041l35.287-3.49c1.508-2.152,2.943-4.357,4.301-6.615l-16.041-5.854l-13.045,1.291
			C310.43,303.672,306.894,308.592,302.778,313.041z"/>
		<path d="M318.244,294.134l-2.472-0.901c-0.173,0.398-0.335,0.803-0.516,1.197L318.244,294.134z"/>
		<path d="M313.28,298.371l13.042-1.29l-4.508-1.645l-7.404,0.732C314.044,296.909,313.67,297.645,313.28,298.371z"/>
		<path fill="#EFEF00" d="M314.409,296.169l7.404-0.732l-3.57-1.303l-2.988,0.296C314.987,295.017,314.694,295.591,314.409,296.169z
			"/>
		<path d="M295.957,319.558l37.352-3.694c0.605-0.749,1.201-1.505,1.788-2.268l-36.463,3.606
			C297.762,318.007,296.869,318.792,295.957,319.558z"/>
		<path d="M361.667,310.967l-0.82,0.081c-0.43,0.746-0.871,1.484-1.314,2.221l3.11-0.308l0.128-2.58l-1.055-0.386L361.667,310.967z"
			/>
		<path d="M300.542,315.358l35.902-3.552c0.549-0.745,1.089-1.497,1.62-2.256l-35.287,3.49
			C302.05,313.828,301.306,314.602,300.542,315.358z"/>
		<path fill="#EFEF00" d="M298.634,317.202l36.463-3.606c0.454-0.592,0.904-1.188,1.348-1.789l-35.902,3.552
			C299.915,315.98,299.285,316.601,298.634,317.202z"/>
		<path fill="#EFEF00" d="M361.667,310.967l0.049-0.972l-0.232-0.084c-0.213,0.378-0.42,0.761-0.637,1.137L361.667,310.967z"/>
		<path fill="#EFEF00" d="M177.703,302.339l-13.749,2.818l16.78,1.659C179.663,305.363,178.659,303.866,177.703,302.339z"/>
		<path d="M137.755,283.093c0.193,0.534,0.391,1.067,0.591,1.598l5.064-1.038L137.755,283.093z"/>
		<path d="M180.734,306.816l-16.78-1.659l-6.898,1.414l25.415,2.514C181.875,308.341,181.299,307.583,180.734,306.816z"/>
		<path d="M183.983,310.89l-32.374-3.202l-1.23,0.252c0.418,0.619,0.845,1.232,1.275,1.843l34.374,3.4
			C185.33,312.432,184.648,311.668,183.983,310.89z"/>
		<path fill="#EFEF00" d="M182.471,309.085l-25.415-2.514l-5.446,1.116l32.374,3.202
			C183.473,310.293,182.961,309.697,182.471,309.085z"/>
		<polygon fill="#EFEF00" points="167.32,245.644 133.155,249.346 167.32,252.981 		"/>
		<path d="M167.32,256.5l-35.97-3.828c0.046,0.66,0.098,1.319,0.156,1.977l35.814,3.812V256.5z"/>
		<path d="M167.32,252.981l-34.165-3.636l-1.978,0.214c0.021,0.518,0.043,1.034,0.072,1.549l36.071,3.839V252.981z"/>
		<path fill="#EFEF00" d="M167.32,254.947l-36.071-3.839c0.029,0.522,0.064,1.043,0.101,1.563l35.97,3.828V254.947z"/>
		<path fill="#EFEF00" d="M167.32,208.29l-25.771-11.35c-0.564,1.214-1.114,2.436-1.636,3.672l27.406,18.707V208.29z"/>
		<path d="M137.629,206.502l22.543,15.387l3.371-0.365l-25.127-17.151C138.147,205.079,137.884,205.789,137.629,206.502z"/>
		<path d="M167.32,219.318l-27.406-18.707c-0.292,0.693-0.573,1.391-0.852,2.091l27.15,18.532l1.108-0.12V219.318z"/>
		<path fill="#EFEF00" d="M138.416,204.373l25.127,17.151l2.669-0.289l-27.15-18.532
			C138.842,203.257,138.628,203.814,138.416,204.373z"/>
		<path fill="#EFEF00" fill-opacity="0.9997" stroke="#000000" stroke-width="2" d="M137.629,206.502
			c0.254-0.713,0.518-1.423,0.787-2.129c0.212-0.558,0.426-1.116,0.646-1.669c0.278-0.7,0.56-1.398,0.852-2.091
			c0.522-1.237,1.072-2.458,1.636-3.672l-18.337-8.076c-5.49,11.904-9.274,24.75-11.039,38.227l20.601-2.232
			C133.882,218.544,135.519,212.412,137.629,206.502z"/>
		<path fill="#EFEF00" fill-opacity="0.9997" stroke="#000000" stroke-width="2" d="M167.32,161.533v-5.03h5.797
			c17.26-13.988,38.71-23.029,62.186-24.946v-20.049c-40.407,2.796-75.861,23.517-98.448,54.239l18.854,8.304
			C159.263,169.593,163.146,165.409,167.32,161.533z"/>
		<path fill="#EFEF00" fill-opacity="0.9997" stroke="#000000" stroke-width="2" d="M127.409,306.715l-4.725-12.879l-0.4,0.082
			l-2.025-5.52l18.087-3.708c-0.201-0.53-0.398-1.063-0.591-1.598c-3.25-9.008-5.386-18.544-6.249-28.444
			c-0.058-0.657-0.11-1.316-0.156-1.977c-0.037-0.521-0.072-1.041-0.101-1.563c-0.028-0.515-0.05-1.031-0.072-1.549l-19.962,2.163
			c1.096,21.214,7.174,41.113,17.076,58.569l-1.282-3.495L127.409,306.715z"/>
		<path fill="#EFEF00" fill-opacity="0.9997" stroke="#000000" stroke-width="2" d="M151.655,309.782
			c-0.43-0.61-0.857-1.224-1.275-1.843l-20.963,4.298c21.742,36.865,60.737,62.386,105.887,65.509v-20.057
			C200.731,354.865,170.526,336.586,151.655,309.782z"/>
		<path fill="#EFEF00" fill-opacity="0.9997" stroke="#000000" stroke-width="2" d="M362.791,183.201l1.604,5.041l-21.28-0.67
			c0.185,0.315,0.364,0.633,0.546,0.951c0.297,0.521,0.595,1.042,0.884,1.567c0.361,0.657,0.713,1.321,1.062,1.986
			c3.66,6.98,6.611,14.389,8.762,22.13l20.915,1.014c-3.07-13.655-8.239-26.517-15.152-38.233l1.97,6.193L362.791,183.201z"/>
		<path fill="#EFEF00" fill-opacity="0.9997" stroke="#000000" stroke-width="2" d="M316.442,156.503h4.932v4.234
			c1.662,1.512,3.276,3.073,4.847,4.68l26.865,0.846c-0.03-0.041-0.061-0.082-0.091-0.123c-0.024-0.035-0.05-0.068-0.075-0.103
			c-21.716-29.701-55.425-50.105-93.991-54.126v20.12C280.567,134.697,300.328,143.444,316.442,156.503z"/>
		<path fill="#EFEF00" fill-opacity="0.9997" stroke="#000000" stroke-width="2" d="M358.343,238.805
			c0.084,1.682,0.131,3.373,0.141,5.073c0.001,0.129,0.006,0.257,0.006,0.386c0.003,0.127,0.003,0.234,0.003,0.361h-0.003
			c0,0.451-0.011,0.9-0.017,1.35c-0.006,0.553-0.008,1.107-0.021,1.657c-0.018,0.702-0.048,1.401-0.078,2.1
			c-0.464,10.607-2.39,20.836-5.581,30.493l18.843,6.875c4.48-13.344,6.907-27.625,6.896-42.473l0.003-0.001
			c0-0.149,0-0.275-0.003-0.425c-0.004-1.48-0.04-2.953-0.092-4.422L358.343,238.805z"/>
		<path fill="#EFEF00" fill-opacity="0.9997" stroke="#000000" stroke-width="2" d="M361.483,309.911l-19.118-6.976
			c-1.357,2.258-2.793,4.463-4.301,6.615c-0.531,0.759-1.071,1.511-1.62,2.256c-0.443,0.602-0.894,1.197-1.348,1.789
			c-0.587,0.763-1.183,1.519-1.788,2.268c-18.055,22.312-44.41,37.658-74.38,41.351v20.131
			c42.752-4.458,79.513-29.04,100.604-64.076c0.443-0.736,0.885-1.475,1.314-2.221C361.063,310.672,361.271,310.289,361.483,309.911
			z"/>
		<polygon points="240.755,156.503 240.757,156.503 240.757,113.481 253.477,113.481 253.477,110.85 247.661,110.85 240.755,110.85 
					"/>
		<polygon points="253.477,376.599 240.757,376.599 240.757,337.916 240.755,337.916 240.755,379.231 247.661,379.231 
			253.477,379.231 		"/>
		<rect x="240.757" y="113.481" fill="#EFEF00" width="12.72" height="43.022"/>
		<path fill="#EFEF00" d="M244.337,338c-1.201,0-2.393-0.033-3.581-0.084v38.683h12.72v-39.117
			C250.478,337.811,247.432,338,244.337,338z"/>
		<polygon points="235.303,156.503 237.259,156.503 237.259,111.456 238.804,111.456 238.804,156.503 240.755,156.503 
			240.755,110.85 240.755,109.049 235.303,109.049 235.303,111.509 235.303,131.558 		"/>
		<path d="M240.755,337.916c-0.654-0.028-1.301-0.077-1.951-0.12v39.933h-1.545v-40.041c-0.655-0.056-1.306-0.123-1.956-0.193
			v20.195v20.057v2.393h5.452v-0.907V337.916z"/>
		<rect x="237.259" y="111.456" fill="#EFEF00" width="1.545" height="45.047"/>
		<path fill="#EFEF00" d="M237.259,377.729h1.545v-39.933c-0.516-0.034-1.032-0.065-1.545-0.108V377.729z"/>
		<path d="M258.929,336.701c-0.647,0.115-1.298,0.224-1.951,0.324v40.703h-1.544v-40.478c-0.648,0.087-1.302,0.159-1.956,0.23
			v39.117v2.633v0.907h5.452v-2.794v-20.131V336.701z"/>
		<polygon points="253.477,113.481 253.477,156.503 255.433,156.503 255.433,111.456 256.978,111.456 256.978,156.503 
			258.929,156.503 258.929,132.031 258.929,111.911 258.929,109.049 253.477,109.049 253.477,110.85 		"/>
		<rect x="255.433" y="111.456" fill="#EFEF00" width="1.544" height="45.047"/>
		<path fill="#EFEF00" d="M255.433,377.729h1.544v-40.703c-0.514,0.078-1.027,0.156-1.544,0.226V377.729z"/>
		<polygon points="128.57,306.477 123.846,293.6 169.699,284.2 169.698,284.198 122.684,293.836 127.409,306.715 152.439,301.584 		
			"/>
		<path fill="#EFEF00" d="M169.699,284.2l-45.853,9.399l4.725,12.877l23.869-4.893l22.243-4.561
			C172.604,292.945,170.922,288.658,169.699,284.2z"/>
		<path d="M169.698,284.198c-0.184-0.668-0.339-1.346-0.502-2.021l-46.574,9.548l-0.573-1.564l46.767-9.587
			c-0.146-0.678-0.269-1.363-0.394-2.048l-25.011,5.127l-5.064,1.038l-18.087,3.708l2.025,5.52l0.4-0.082L169.698,284.198z"/>
		<path fill="#EFEF00" d="M122.049,290.16l0.573,1.564l46.574-9.548c-0.129-0.534-0.265-1.065-0.38-1.604L122.049,290.16z"/>
		<path d="M150.38,307.939l1.23-0.252l5.446-1.116l6.898-1.414l13.749-2.818c-0.392-0.626-0.789-1.249-1.16-1.887l-47.171,9.67
			l-0.574-1.563l46.912-9.617c-0.35-0.636-0.699-1.271-1.028-1.918l-22.243,4.561l-25.03,5.131l-0.4,0.082l1.282,3.495l0.742,2.023
			l0.383-0.078L150.38,307.939z"/>
		<path fill="#EFEF00" d="M128.798,308.559l0.574,1.563l47.171-9.67c-0.29-0.497-0.556-1.007-0.833-1.511L128.798,308.559z"/>
		<polygon points="111.881,245.99 111.268,232.851 167.32,226.776 167.32,226.775 110.05,232.981 110.663,246.122 		"/>
		<polygon fill="#EFEF00" points="167.32,226.776 111.268,232.851 111.881,245.99 167.32,239.983 		"/>
		<polygon points="167.32,226.775 167.32,224.749 110.651,230.89 110.577,229.294 167.32,223.146 167.32,221.115 166.212,221.235 
			163.543,221.524 160.172,221.889 132.774,224.858 112.173,227.09 109.368,227.395 109.631,233.027 110.05,232.981 		"/>
		<polygon fill="#EFEF00" points="167.32,223.146 110.577,229.294 110.651,230.89 167.32,224.749 		"/>
		<polygon points="131.178,249.56 133.155,249.346 167.32,245.644 167.32,243.618 111.527,249.664 111.453,248.068 167.32,242.014 
			167.32,239.983 111.881,245.99 110.663,246.122 110.244,246.168 110.506,251.8 111.215,251.723 		"/>
		<polygon fill="#EFEF00" points="111.453,248.068 111.527,249.664 167.32,243.618 167.32,242.014 		"/>
		<polygon points="132.412,170.513 167.32,185.888 167.32,185.886 131.388,170.061 123.511,182.274 124.537,182.726 		"/>
		<polygon fill="#EFEF00" points="167.32,185.888 132.412,170.513 124.537,182.726 167.32,201.568 		"/>
		<polygon points="167.32,185.886 167.32,183.48 133.181,168.445 134.137,166.962 167.32,181.577 167.32,179.165 155.71,174.052 
			136.855,165.748 134.41,164.67 131.034,169.905 131.388,170.061 		"/>
		<polygon fill="#EFEF00" points="134.137,166.962 133.181,168.445 167.32,183.48 167.32,181.577 		"/>
		<polygon points="141.55,196.939 167.32,208.29 167.32,205.884 121.929,185.893 122.886,184.41 167.32,203.98 167.32,201.568 
			124.537,182.726 123.511,182.274 123.158,182.118 119.782,187.353 123.212,188.863 		"/>
		<polygon fill="#EFEF00" points="122.886,184.41 121.929,185.893 167.32,205.884 167.32,203.98 		"/>
		<polygon points="321.374,218.24 321.374,218.241 379.013,221.034 378.842,234.167 380.065,234.226 380.235,221.092 		"/>
		<polygon fill="#EFEF00" points="321.374,231.381 378.842,234.167 379.013,221.034 321.374,218.241 		"/>
		<polygon points="321.374,212.607 321.374,214.628 380.001,217.469 379.98,219.064 321.374,216.224 321.374,218.24 
			380.235,221.092 381.072,221.133 381.146,215.504 375.282,215.22 354.367,214.206 		"/>
		<polygon fill="#EFEF00" points="379.98,219.064 380.001,217.469 321.374,214.628 321.374,216.224 		"/>
		<polygon points="321.374,231.381 321.374,233.402 379.757,236.231 379.736,237.826 321.374,234.998 321.374,237.014 
			358.343,238.805 378.438,239.779 380.829,239.895 380.902,234.267 380.065,234.226 378.842,234.167 		"/>
		<polygon fill="#EFEF00" points="321.374,234.998 379.736,237.826 379.757,236.231 321.374,233.402 		"/>
		<polygon points="321.374,170.254 321.374,170.255 357.349,171.388 361.091,183.147 362.1,183.18 360.13,176.986 358.358,171.419 
					"/>
		<polygon fill="#EFEF00" points="321.374,181.897 361.091,183.147 357.349,171.388 321.374,170.255 		"/>
		<polygon points="326.221,165.417 321.374,165.264 321.374,167.055 357.097,168.179 357.552,169.607 321.374,168.468 
			321.374,170.254 358.358,171.419 359.049,171.44 357.445,166.4 353.086,166.263 		"/>
		<polygon fill="#EFEF00" points="357.552,169.607 357.097,168.179 321.374,167.055 321.374,168.468 		"/>
		<polygon points="321.374,181.897 321.374,183.688 362.443,184.98 362.897,186.409 321.374,185.102 321.374,186.887 
			334.744,187.308 343.114,187.572 364.395,188.242 362.791,183.201 362.1,183.18 361.091,183.147 		"/>
		<polygon fill="#EFEF00" points="362.897,186.409 362.443,184.98 321.374,183.688 321.374,185.102 		"/>
		<polygon points="320.843,274.687 320.843,274.688 369.648,292.494 363.969,304.699 365.095,305.109 370.774,292.904 		"/>
		<path fill="#EFEF00" d="M363.969,304.699l5.68-12.205l-48.806-17.807c-0.559,4.536-1.56,8.947-2.988,13.186L363.969,304.699z"/>
		<path d="M321.374,268.761v0.893h-0.098c-0.02,0.415-0.047,0.827-0.074,1.24l50.874,18.562l-0.69,1.482l-50.321-18.36
			c-0.064,0.706-0.136,1.409-0.222,2.109l49.932,18.218l0.771,0.281l2.434-5.23l-2.344-0.855l-18.843-6.875L321.374,268.761z"/>
		<path fill="#EFEF00" d="M371.386,290.938l0.69-1.482l-50.874-18.562c-0.037,0.563-0.087,1.124-0.138,1.684L371.386,290.938z"/>
		<path d="M363.969,304.699l-46.114-16.826c-0.22,0.652-0.467,1.294-0.706,1.938l46.813,17.081l-0.689,1.481l-46.696-17.037
			c-0.255,0.639-0.532,1.267-0.805,1.896l2.472,0.901l3.57,1.303l4.508,1.645l0.003,0.001l16.041,5.854l19.118,6.976l0.232,0.084
			l1.055,0.386l0.66,0.24l2.435-5.23l-0.771-0.281L363.969,304.699z"/>
		<path fill="#EFEF00" d="M363.272,308.373l0.689-1.481l-46.813-17.081c-0.189,0.51-0.371,1.021-0.572,1.525L363.272,308.373z"/>
		<path fill="#F6F6FB" d="M167.399,269.653c-0.045-0.957-0.075-1.918-0.079-2.884v2.884H167.399z"/>
		<path fill="#F6F6FB" d="M238.804,156.503h-1.545h-1.956h-62.186h-5.797v5.03v17.632v2.412v1.904v2.406v0.001v15.681v2.412v1.904
			v2.406v11.029v1.796v2.031v1.604v2.026v0.001v13.207v2.031v1.604v2.025v7.338v1.966v1.553v1.96v7.735
			c0.033-7.693,1.385-15.095,3.839-22.034v-4.679h-0.152v-2.053h-0.002v-2.945h0.154V161.04H317.51v83.106
			c2.488,7.03,3.853,14.533,3.853,22.337c0,1.063-0.037,2.119-0.086,3.171h0.098v-0.893v-15.369V251.3v-1.654v-2.097v-10.535v-2.016
			v-1.596v-2.021v-13.141v-0.001v-2.016v-1.596v-2.021v-18.135v-2.091v-1.655v-2.096v-1.744v-1.786v-1.414v-1.79v-11.643v0v-1.786
			v-1.414v-1.791v-4.527v-4.234h-4.932h-57.514h-1.951h-1.544h-1.956h-12.72h-0.001H238.804z"/>
		<path fill="#F6F6FB" d="M321.362,266.482c0-7.804-1.365-15.307-3.853-22.337v14.718h0.152v2.193h-0.152v7.476h-0.093
			c-1.699,36.124-33.767,64.93-73.091,64.93c-39.325,0-71.393-28.806-73.092-64.93h-0.075v-2.744c0-0.09-0.007-0.179-0.007-0.269
			s0.007-0.179,0.007-0.269V247.74h-0.15v-2.192h0.15v-1.387c-2.454,6.939-3.806,14.341-3.839,22.034
			c0,0.097-0.008,0.19-0.008,0.287c0,0.096,0.007,0.19,0.008,0.287c0.004,0.966,0.034,1.927,0.079,2.884
			c0.142,3.011,0.492,5.969,1.022,8.872c0.125,0.685,0.248,1.37,0.394,2.048c0.116,0.538,0.251,1.069,0.38,1.604
			c0.163,0.676,0.319,1.354,0.502,2.021c0,0,0,0.001,0,0.002c1.224,4.458,2.905,8.745,4.983,12.823
			c0.329,0.647,0.678,1.282,1.028,1.918c0.277,0.504,0.543,1.014,0.833,1.511c0.372,0.638,0.769,1.261,1.16,1.887
			c0.956,1.527,1.96,3.024,3.031,4.478c0.565,0.767,1.142,1.524,1.737,2.269c0.49,0.612,1.002,1.208,1.512,1.805
			c0.665,0.778,1.347,1.542,2.045,2.293c12.271,13.197,29.64,22.18,49.274,24.312c0.65,0.07,1.301,0.138,1.956,0.193
			c0.513,0.043,1.029,0.074,1.545,0.108c0.65,0.043,1.297,0.092,1.951,0.12c0,0,0.001,0,0.001,0c1.188,0.051,2.38,0.084,3.581,0.084
			c3.095,0,6.14-0.189,9.14-0.519c0.654-0.071,1.308-0.144,1.956-0.23c0.517-0.069,1.031-0.147,1.544-0.226
			c0.653-0.101,1.304-0.209,1.951-0.324c14.081-2.508,26.802-8.563,37.028-17.144c0.912-0.766,1.805-1.551,2.677-2.355
			c0.651-0.602,1.281-1.222,1.909-1.844c0.764-0.757,1.507-1.53,2.235-2.317c4.116-4.449,7.652-9.369,10.501-14.668
			c0-0.001,0-0.001,0.001-0.002c0.391-0.727,0.765-1.462,1.129-2.202c0.285-0.578,0.578-1.152,0.847-1.739
			c0.181-0.395,0.342-0.799,0.516-1.197c0.273-0.63,0.55-1.258,0.805-1.896c0.201-0.504,0.382-1.016,0.572-1.525
			c0.239-0.644,0.486-1.285,0.706-1.938c1.429-4.238,2.43-8.649,2.988-13.186c0-0.001,0-0.001,0-0.001
			c0.086-0.7,0.157-1.403,0.222-2.109c0.051-0.56,0.101-1.12,0.138-1.684c0.027-0.413,0.055-0.825,0.074-1.24
			C321.325,268.602,321.362,267.546,321.362,266.482z"/>
		<rect x="184.502" y="170.768" fill="#FF0000" width="7.865" height="0.017"/>
		<path fill="#FF0000" d="M188.504,182.553c-4.2,0-7.605,3.589-7.602,8.011l4.188,0.024h11.028c0-0.012,0-0.024,0-0.037
			C196.115,186.129,192.704,182.545,188.504,182.553z M181.663,190.167c-0.003-3.98,3.062-7.21,6.842-7.21
			c3.78-0.006,6.85,3.219,6.853,7.198c0,0.032,0,0.058,0,0.09L181.663,190.167z"/>
		<path fill="#FF0000" d="M300.948,182.903c-4.2,0-7.605,3.589-7.603,8.011l4.274,0.024h10.942c0-0.012,0-0.024,0-0.037
			C308.559,186.479,305.147,182.896,300.948,182.903z M294.107,190.518c-0.003-3.98,3.062-7.21,6.842-7.21
			c3.779-0.006,6.85,3.219,6.853,7.199c0,0.031,0,0.058,0,0.089L294.107,190.518z"/>
		<rect x="241.77" y="171.119" fill="#FF0000" width="7.865" height="0.017"/>
		<path fill="#FF0000" d="M173.262,237.409h2.242v-2.865h2.257v2.766c0.667-1.354,1.365-2.691,2.123-3.995v-1.606h0.982
			c5.017-8.101,11.765-15.158,19.798-20.713v-15.212h4.155v-3.289h26.272v-1.299h29.294v1.299h23.463v3.289h4.164v15.228
			c7.792,5.393,14.377,12.199,19.342,20h0.798v1.29c0.813,1.345,1.586,2.713,2.302,4.112v-2.626h2.257v2.925h2.36v-2.924h2.257
			v2.945h-0.012v2.052h-5.707c0.003,0.006,0.006,0.012,0.009,0.018h3.847v6.048h1.853v2.192h-2.579
			c0.061,0.2,0.125,0.399,0.184,0.601h0.543v1.979c0.777,3.008,1.35,6.09,1.68,9.239h0.365v-14.718V161.04H171.159v73.445h2.103
			V237.409z M173.813,193.038v-2.193h29.294v2.193H173.813z M253.396,190.938c0,0.021,0,0.041,0,0.062l-10.941-0.062h-9.166v-10.96
			h24.9v10.96H253.396z M315.552,193.389h-29.295v-2.192h29.295V193.389z M313.354,190.938h-4.792c0,0.021,0,0.041,0,0.062
			l-10.942-0.062h-9.166v-10.96h24.899V190.938z M315.217,169.066h-0.012v2.053h-8.146v0.017h6.295v6.048h1.853v2.192h-29.294
			v-2.192h2.542v-6.048h6.226v-0.017h-8.769v-2.053h-0.002v-2.945h2.257v2.924h2.242v-2.865h2.257v2.865h2.117v-2.734h11.247v2.734
			h2.314v-2.925h2.257v2.925h2.36v-2.924h2.257V169.066z M306.042,163.345v2.945h-2.257v-2.945H306.042z M301.661,163.285v2.945
			h-2.257v-2.945H301.661z M297.044,163.345v2.945h-2.257v-2.945H297.044z M248.618,163.345h2.257v2.945h-2.257V163.345z
			 M244.238,163.285h2.257v2.945h-2.257V163.285z M239.621,163.345h2.257v2.945h-2.257V163.345z M230.742,166.121h2.257v2.924h2.242
			v-2.865h2.257v2.865h2.116v-2.734h11.248v2.734h2.315v-2.925h2.257v2.925h2.36v-2.924h2.257v2.945h-0.012v2.053h-8.147v0.017
			h6.295v6.048h1.853v2.192h-29.294v-2.192h2.542v-6.048h6.226v-0.017h-8.769v-2.053h-0.002V166.121z M191.341,162.994h2.257v2.945
			h-2.257V162.994z M186.96,162.935h2.257v2.945h-2.257V162.935z M182.343,162.994h2.257v2.945h-2.257V162.994z M173.464,165.771
			h2.257v2.924h2.242v-2.865h2.257v2.865h2.117v-2.734h11.248v2.734h2.314v-2.925h2.257v2.925h2.36v-2.924h2.257v2.945h-0.012v2.052
			h-8.137v0.017h6.285v6.049h1.853v2.192h-29.294v-2.192h2.542v-6.049h6.235v-0.017h-8.778v-2.052h-0.002V165.771z M176.01,179.627
			h24.9v10.96h-4.792c0,0.021,0,0.041,0,0.063l-11.027-0.063h-9.081V179.627z"/>
		<rect x="296.937" y="171.119" fill="#FF0000" width="7.865" height="0.017"/>
		<path fill="#FF0000" d="M171.354,259.56h0.095c0.38-4.053,1.139-8.002,2.251-11.819h-2.541v17.511
			c0.006-1.523,0.082-3.03,0.194-4.527V259.56z"/>
		<path fill="#FF0000" d="M171.159,268.532h0.075c-0.043-0.91-0.071-1.824-0.075-2.744V268.532z"/>
		<path fill="#FF0000" d="M317.499,265.52c0,1.011-0.035,2.013-0.082,3.013h0.093v-7.476h-0.185
			C317.428,262.533,317.499,264.019,317.499,265.52z"/>
		<path fill="#FF0000" d="M171.159,245.548h2.391V239.5h3.17c0.003-0.005,0.005-0.011,0.007-0.017h-5.569v4.679V245.548z"/>
		<path fill="#FF0000" d="M245.781,182.903c-4.199,0-7.605,3.589-7.602,8.011l4.274,0.024h10.942c0-0.012,0-0.024,0-0.037
			C253.392,186.479,249.981,182.896,245.781,182.903z M238.941,190.518c-0.003-3.98,3.062-7.21,6.841-7.21
			c3.78-0.006,6.85,3.219,6.853,7.199c0,0.031,0,0.058,0,0.089L238.941,190.518z"/>
		
			<rect x="288.225" y="292.306" transform="matrix(-0.7348 0.6783 -0.6783 -0.7348 700.9575 318.4038)" fill="#FF0000" width="0.017" height="7.855"/>
		<path fill="#FF0000" d="M279.243,303.863c-2.736-3.18-7.683-3.419-11.043-0.535c-0.01,0.009-0.019,0.017-0.028,0.024l7.167,8.299
			l2.784,3.187C281.483,311.954,281.984,307.037,279.243,303.863z M268.929,303.704c0.023-0.021,0.044-0.038,0.068-0.059
			c3.023-2.596,7.476-2.38,9.938,0.481c2.467,2.856,2.016,7.281-1.008,9.877L268.929,303.704z"/>
		<path fill="#FF0000" d="M210.521,304.211c-2.742,3.174-2.24,8.092,1.12,10.976l2.71-3.103l7.24-8.384
			c-0.009-0.008-0.019-0.016-0.028-0.024C218.204,300.792,213.257,301.031,210.521,304.211z M211.837,314.352
			c-3.023-2.596-3.475-7.021-1.008-9.877c2.462-2.861,6.915-3.077,9.938-0.481c0.024,0.021,0.044,0.038,0.068,0.059L211.837,314.352
			z"/>
		
			<rect x="201.522" y="292.655" transform="matrix(-0.7752 -0.6317 0.6317 -0.7752 170.4203 653.8038)" fill="#FF0000" width="0.017" height="7.854"/>
		<path fill="#FF0000" d="M317.499,265.52c0-1.501-0.071-2.986-0.174-4.463h-28.957v-2.193h28.777
			c-0.33-3.149-0.903-6.231-1.68-9.239v8.982h-4.792c0,0.021,0,0.04,0,0.062l-10.942-0.062h-9.166v-10.961h24.357
			c-0.059-0.201-0.123-0.4-0.184-0.601h-26.715v-2.192h2.542v-6.048h6.226v-0.018h-8.769v-2.052h-0.002v-2.945h2.257v2.924h2.242
			v-2.865h2.257v2.865h2.117v-2.734h11.248v2.734h2.314v-0.299c-0.716-1.399-1.488-2.768-2.302-4.112v1.656h-2.257v-2.945h1.458
			c-4.965-7.801-11.55-14.607-19.342-20v48.928h-0.056c-1.014,21.561-20.154,38.754-43.624,38.754
			c-23.471,0-42.61-17.193-43.625-38.754h-0.044v-1.637c0-0.054-0.004-0.107-0.004-0.161s0.004-0.107,0.004-0.161v-46.985
			c-8.033,5.555-14.781,12.612-19.798,20.713h1.275v2.945h-2.257v-1.339c-0.758,1.304-1.457,2.641-2.123,3.995v0.1h2.117v-2.734
			h11.247v2.734h2.315v-2.925h2.257v2.925h2.36v-2.925h2.257v2.945h-0.012v2.053h-8.137v0.017h6.286v6.048h1.853v2.192H173.7
			c-1.112,3.817-1.872,7.767-2.251,11.819h29.199v2.192h-29.294v-1.028c-0.113,1.497-0.188,3.004-0.194,4.527
			c0,0.09-0.007,0.179-0.007,0.269s0.007,0.179,0.007,0.269c0.004,0.92,0.032,1.834,0.075,2.744
			c1.699,36.124,33.767,64.93,73.092,64.93c39.324,0,71.392-28.806,73.091-64.93C317.464,267.532,317.499,266.53,317.499,265.52z
			 M303.772,233.898h-2.257v-2.945h2.257V233.898z M296.898,231.013h2.257v2.945h-2.257V231.013z M184.501,234.594v-2.945h2.257
			v2.945H184.501z M188.881,234.653v-2.945h2.257v2.945H188.881z M193.658,259.365l-10.989-0.063h-9.119v-10.96h24.9v10.96h-4.792
			C193.658,259.322,193.658,259.343,193.658,259.365z M293.673,290.518l1.473,1.706l-2.236,1.923l-1.473-1.706L293.673,290.518z
			 M290.005,290.874l-1.473-1.706l2.236-1.923l1.473,1.706L290.005,290.874z M198.996,287.594l2.236,1.922l-1.473,1.706
			l-2.236-1.923L198.996,287.594z M196.091,290.865l2.236,1.923l-1.473,1.706l-2.236-1.922L196.091,290.865z M191.649,296.101
			l1.473-1.706l2.236,1.923l-1.473,1.706L191.649,296.101z M196.364,311.844l1.659-1.922l-4.592-3.948l4.065-4.707l-0.013-0.012
			l-5.725,6.63l-1.559-1.34l-0.001,0.002l-2.236-1.923l1.473-1.706l2.221,1.909l1.463-1.694l-2.176-1.871l1.474-1.706l2.175,1.87
			l1.382-1.6l-2.076-1.785l7.342-8.501l2.076,1.784l1.511-1.75l-2.221-1.908l1.473-1.707l2.221,1.91l1.541-1.784l-2.22-1.909
			l1.473-1.705l2.236,1.922l-0.008,0.009l1.559,1.34l-5.316,6.156l0.013,0.012l4.108-4.757l4.593,3.948l1.209-1.4l1.664,1.431
			l-19.122,22.143L196.364,311.844z M200.144,311.745l16.254-18.821l8.322,7.154l-3.128,3.622c0.015,0.014,0.031,0.027,0.047,0.042
			l-7.288,8.342l-5.886,6.815L200.144,311.745z M207.228,320.729l19.122-22.143l1.665,1.431l-19.122,22.144L207.228,320.729z
			 M282.537,320.381l-1.665,1.432l-19.123-22.144l1.665-1.431L282.537,320.381z M281.298,318.552l-5.959-6.9l-7.214-8.258
			c0.017-0.014,0.032-0.027,0.047-0.041l-3.128-3.622l8.322-7.154l16.254,18.821L281.298,318.552z M293.791,299.479l1.381,1.601
			l2.176-1.871l1.474,1.706l-2.176,1.871l1.463,1.693l2.221-1.908l1.474,1.706l-2.236,1.923l-0.002-0.002l-1.559,1.34l-5.726-6.63
			l-0.013,0.011l4.065,4.708l-4.592,3.948l1.659,1.921l-1.664,1.431l-19.123-22.143l1.665-1.432l1.209,1.4l4.592-3.947l4.107,4.756
			l0.013-0.011l-5.316-6.156l1.559-1.34l-0.008-0.009l2.236-1.923l1.474,1.706l-2.221,1.909l1.541,1.784l2.221-1.91l1.473,1.707
			l-2.221,1.909l1.511,1.75l2.076-1.785l7.342,8.501L293.791,299.479z M298.114,295.753l-2.236,1.923l-1.474-1.707l2.236-1.922
			L298.114,295.753z"/>
		<path fill="#FF0000" d="M303.059,250.571c-4.199,0-7.605,3.589-7.602,8.011l4.274,0.024h10.942c0-0.012,0-0.024,0-0.037
			C310.67,254.147,307.259,250.564,303.059,250.571z M296.218,258.186c-0.003-3.979,3.062-7.209,6.841-7.209
			c3.78-0.007,6.851,3.219,6.854,7.197c0,0.032,0,0.059-0.001,0.09L296.218,258.186z"/>
		<path fill="#FF0000" d="M309.17,238.804h2.448c-0.003-0.006-0.006-0.012-0.009-0.018h-2.439V238.804z"/>
		<rect x="299.048" y="238.787" fill="#FF0000" width="7.865" height="0.018"/>
		<path fill="#FF0000" d="M186.044,251.268c-4.2,0-7.605,3.588-7.602,8.01l4.227,0.024h10.989c0-0.012,0-0.023,0-0.036
			C193.655,254.843,190.244,251.26,186.044,251.268z M186.045,251.672c3.78-0.006,6.85,3.219,6.853,7.198c0,0.032,0,0.058,0,0.09
			l-13.694-0.078C179.201,254.902,182.266,251.672,186.045,251.672z"/>
		<path fill="#FF0000" d="M179.786,239.5v-0.017h-3.058c-0.002,0.006-0.004,0.012-0.007,0.017H179.786z"/>
		<rect x="182.042" y="239.482" fill="#FF0000" width="7.865" height="0.017"/>
		<polygon fill="#FF0000" points="283.848,195.784 283.848,192.495 260.385,192.495 260.385,193.389 231.09,193.389 231.09,192.495 
			204.818,192.495 204.818,195.784 		"/>
		<path fill="#440000" d="M200.664,258.303v1.637h0.044C200.683,259.396,200.666,258.852,200.664,258.303z"/>
		<path fill="#440000" d="M200.664,257.98c0.026-6.201,1.549-12.073,4.254-17.321v-39.862h78.833v39.87
			c2.726,5.292,4.255,11.217,4.255,17.475c0,0.603-0.021,1.201-0.049,1.798h0.056v-48.928v-15.228h-4.164h-79.03h-4.155v15.212
			V257.98z"/>
		<path fill="#440000" d="M288.005,258.142c0-6.258-1.529-12.183-4.255-17.475v18.031h-0.05
			c-0.915,19.458-18.189,34.975-39.371,34.975c-21.182,0-38.456-15.517-39.372-34.975h-0.04v-1.479c0-0.048-0.004-0.096-0.004-0.144
			s0.004-0.096,0.004-0.144v-16.272c-2.705,5.248-4.229,11.12-4.254,17.321c0,0.054-0.004,0.107-0.004,0.161
			s0.004,0.107,0.004,0.161c0.002,0.549,0.019,1.094,0.044,1.637c1.014,21.561,20.154,38.754,43.625,38.754
			c23.47,0,42.61-17.193,43.624-38.754C287.984,259.343,288.005,258.744,288.005,258.142z"/>
		<path fill="#FFFFFF" d="M204.918,256.932c0.019-4.442,0.89-8.697,2.47-12.633v-11.93h7.867c2.297-2.33,4.92-4.376,7.794-6.092
			v-8.537h9.971v-15.332h23.108v15.332h9.491v8.542c2.871,1.715,5.49,3.759,7.786,6.087h8.357v13.243
			c1.281,3.606,1.983,7.458,1.983,11.463c0,0.544-0.019,1.085-0.044,1.623h0.05v-18.031v-39.87h-78.833v39.862V256.932z"/>
		<path fill="#FFFFFF" d="M204.918,258.698h0.04c-0.023-0.491-0.038-0.983-0.04-1.479V258.698z"/>
		<path fill="#FFFFFF" d="M283.745,257.075c0-4.005-0.703-7.856-1.983-11.463v3.729h-0.028c-0.27,5.702-5.32,10.252-11.528,10.252
			c-2,0-3.881-0.473-5.521-1.303c-1.408,4.266-4.333,7.908-8.186,10.405v10.972h-0.028c-0.271,5.703-5.32,10.252-11.528,10.252
			s-11.257-4.549-11.528-10.252h-0.025v-0.459c0-0.006-0.001-0.012-0.001-0.018s0.001-0.012,0.001-0.018v-9.756
			c-4.392-2.454-7.76-6.321-9.34-10.941c-1.542,0.709-3.272,1.117-5.109,1.117c-6.208,0-11.258-4.55-11.528-10.252h-0.025v-0.458
			c0-0.006-0.001-0.012-0.001-0.018s0.001-0.012,0.001-0.018v-4.55c-1.58,3.936-2.451,8.19-2.47,12.633
			c0,0.048-0.004,0.096-0.004,0.144s0.004,0.096,0.004,0.144c0.002,0.496,0.017,0.988,0.04,1.479
			c0.916,19.458,18.189,34.975,39.372,34.975c21.182,0,38.456-15.517,39.371-34.975C283.726,258.16,283.745,257.619,283.745,257.075
			z"/>
		<path fill="#FFFFFF" d="M223.049,232.369v-6.092c-2.874,1.716-5.497,3.762-7.794,6.092H223.049z"/>
		<path fill="#FFFFFF" d="M265.619,232.369h7.786c-2.295-2.328-4.915-4.372-7.786-6.087V232.369z"/>
		<path fill="#FFFFFF" d="M223.049,232.369h7.447v5.126c0.792-0.631,1.637-1.203,2.524-1.721v-3.405h23.108v3.674
			c0.896,0.555,1.731,1.184,2.525,1.855v-5.53h6.966v-6.087v-8.542h-9.491v1.641h-0.027c-0.271,5.702-5.32,10.252-11.528,10.252
			s-11.257-4.55-11.528-10.252h-0.025v-0.458c0-0.006-0.001-0.012-0.001-0.018s0.001-0.012,0.001-0.018v-1.147h-9.971v8.537V232.369
			z"/>
		<path fill="#FFFFFF" d="M258.678,249.342h-0.025v-0.458c0-0.006-0.001-0.012-0.001-0.018s0.001-0.012,0.001-0.018v-10.95
			c-0.793-0.671-1.628-1.3-2.525-1.855v13.298h-0.027c-0.27,5.702-5.32,10.252-11.528,10.252s-11.258-4.55-11.528-10.252h-0.025
			v-0.458c0-0.006-0.001-0.012-0.001-0.018s0.001-0.012,0.001-0.018v-13.075c-0.887,0.519-1.732,1.09-2.524,1.721v11.847h-0.028
			c-0.19,4.015-2.749,7.45-6.418,9.135c1.58,4.62,4.948,8.487,9.34,10.941v-6.723h23.108v6.001c3.853-2.497,6.778-6.14,8.186-10.405
			C261.232,256.544,258.861,253.207,258.678,249.342z"/>
		<path fill="#3B3BFF" d="M233.39,279.668h0.025c-0.007-0.153-0.024-0.304-0.025-0.459V279.668z"/>
		<path fill="#3B3BFF" d="M256.498,262.695H233.39v6.723v9.756c0.002-1.159,0.208-2.273,0.576-3.318v-12.48h21.953v12.479
			c0.371,1.052,0.578,2.172,0.578,3.338c0,0.161-0.019,0.317-0.026,0.477h0.028v-10.972V262.695z"/>
		<path fill="#3B3BFF" d="M255.918,275.854v3.646h-0.027c-0.257,5.417-5.054,9.738-10.951,9.738c-5.897,0-10.694-4.321-10.951-9.738
			h-0.023v-0.436c0-0.006-0.001-0.012-0.001-0.018s0.001-0.012,0.001-0.018v-3.174c-0.369,1.045-0.574,2.159-0.576,3.318
			c0,0.006-0.001,0.012-0.001,0.018s0.001,0.012,0.001,0.018c0,0.155,0.018,0.306,0.025,0.459
			c0.271,5.703,5.32,10.252,11.528,10.252s11.257-4.549,11.528-10.252c0.007-0.159,0.026-0.315,0.026-0.477
			C256.496,278.025,256.289,276.905,255.918,275.854z"/>
		<path fill="#3B3BFF" d="M233.966,279.5h0.023c-0.007-0.146-0.023-0.288-0.023-0.436V279.5z"/>
		<path fill="#3B3BFF" d="M238.349,270.912c-0.116,0.012-0.229,0.035-0.348,0.035c-1.909,0-3.456-1.543-3.456-3.447
			s1.547-3.449,3.456-3.449c1.908,0,3.456,1.545,3.456,3.449c0,0.203-0.026,0.4-0.06,0.594h6.162
			c-0.034-0.193-0.06-0.391-0.06-0.594c0-1.904,1.547-3.449,3.456-3.449s3.456,1.545,3.456,3.449c0,1.717-1.26,3.128-2.906,3.392
			c2.674,1.859,4.413,4.815,4.413,8.155c0,0.153-0.018,0.302-0.025,0.453h0.027v-3.646v-12.479h-21.953v12.48v3.174
			C233.972,275.708,235.696,272.769,238.349,270.912z"/>
		<path fill="#3B3BFF" d="M251.503,270.892c-0.003,0.001-0.006,0.001-0.01,0.001v7.318h-0.016c-0.007,0.144-0.014,0.286-0.031,0.427
			c1.607,0.296,2.826,1.696,2.826,3.385c0,1.904-1.547,3.448-3.456,3.448c-1.393,0-2.585-0.827-3.132-2.011
			c-0.835,0.358-1.762,0.563-2.742,0.563c-1.199,0-2.32-0.304-3.287-0.826c-0.539,1.203-1.744,2.045-3.151,2.045
			c-1.909,0-3.456-1.543-3.456-3.447c0-1.873,1.5-3.39,3.365-3.439c-0.003-0.048-0.005-0.096-0.008-0.145h-0.014v-0.252
			c0-0.006-0.001-0.012-0.001-0.018s0.001-0.012,0.001-0.018v-7.016c-0.014,0.001-0.028,0.003-0.043,0.004
			c-2.653,1.856-4.376,4.796-4.383,8.117c0,0.006-0.001,0.012-0.001,0.018s0.001,0.012,0.001,0.018c0,0.147,0.017,0.29,0.023,0.436
			c0.257,5.417,5.054,9.738,10.951,9.738c5.897,0,10.694-4.321,10.951-9.738c0.007-0.151,0.025-0.3,0.025-0.453
			C255.917,275.707,254.178,272.751,251.503,270.892z"/>
		<path fill="#3B3BFF" d="M241.264,268.587h6.427c-0.054-0.161-0.103-0.323-0.132-0.493h-6.162
			C241.366,268.264,241.318,268.426,241.264,268.587z"/>
		<path fill="#3B3BFF" d="M238.392,278.211h0.014c-0.004-0.084-0.013-0.167-0.014-0.252V278.211z"/>
		<path fill="#3B3BFF" d="M239.03,275.334v-4.56c-0.206,0.064-0.418,0.108-0.638,0.134v7.016
			C238.395,276.996,238.627,276.12,239.03,275.334z"/>
		<path fill="#3B3BFF" d="M250.954,270.947c-0.034,0-0.066-0.009-0.1-0.01v4.398c0.405,0.791,0.638,1.672,0.638,2.605
			c0,0.091-0.01,0.18-0.015,0.27h0.016v-7.318C251.317,270.921,251.139,270.947,250.954,270.947z"/>
		<path fill="#3B3BFF" d="M248.04,269.339c-0.148-0.232-0.261-0.486-0.35-0.752h-6.427c-0.089,0.266-0.202,0.52-0.35,0.752H248.04z"
			/>
		<path fill="#3B3BFF" d="M247.441,282.75c-0.76,0.33-1.605,0.521-2.5,0.521c-1.118,0-2.159-0.293-3.051-0.794
			c-0.051,0.252-0.133,0.491-0.235,0.721c0.967,0.522,2.087,0.826,3.287,0.826c0.98,0,1.907-0.205,2.742-0.563
			C247.58,283.234,247.495,282.999,247.441,282.75z"/>
		<path fill="#3B3BFF" d="M239.069,278.403c-0.015-0.125-0.021-0.252-0.027-0.379h-0.012v-0.226c0-0.006-0.001-0.012-0.001-0.018
			s0.001-0.012,0.001-0.018v-2.43c-0.403,0.786-0.635,1.662-0.638,2.59c0,0.006-0.001,0.012-0.001,0.018s0.001,0.012,0.001,0.018
			c0,0.085,0.01,0.168,0.014,0.252c0.002,0.049,0.004,0.097,0.008,0.145c0.031,0,0.06-0.009,0.091-0.009
			C238.698,278.347,238.884,278.373,239.069,278.403z"/>
		<path fill="#3B3BFF" d="M250.854,275.336v2.688h-0.014c-0.009,0.187-0.027,0.371-0.056,0.553c0.011,0,0.021-0.003,0.032-0.003
			c0.216,0,0.425,0.025,0.63,0.063c0.017-0.141,0.024-0.283,0.031-0.427c0.004-0.09,0.015-0.179,0.015-0.27
			C251.493,277.008,251.259,276.127,250.854,275.336z"/>
		<path fill="#3B3BFF" d="M239.03,275.334v2.43c0.006-1.674,0.819-3.169,2.095-4.172c0.143-0.395,0.356-0.751,0.624-1.063v-0.647
			h0.72c0.544-0.357,1.194-0.568,1.894-0.568s1.349,0.211,1.894,0.568h1.878v1.284c1.634,0.978,2.719,2.678,2.719,4.616
			c0,0.082-0.009,0.162-0.013,0.243h0.014v-2.688v-4.398c-1.187-0.034-2.219-0.661-2.814-1.599h-7.126
			c-0.433,0.681-1.098,1.189-1.884,1.436V275.334z"/>
		<path fill="#3B3BFF" d="M239.03,278.024h0.012c-0.003-0.075-0.012-0.149-0.012-0.226V278.024z"/>
		<path fill="#3B3BFF" d="M248.135,273.165v3.405h-0.057c0.033,0.171,0.057,0.344,0.057,0.523c0,1.637-1.429,2.964-3.193,2.964
			c-1.763,0-3.192-1.327-3.192-2.964c0-0.03,0.008-0.058,0.009-0.088c-0.524-0.604-0.852-1.382-0.852-2.244
			c0-0.413,0.084-0.803,0.218-1.17c-1.276,1.003-2.089,2.498-2.095,4.172c0,0.006-0.001,0.012-0.001,0.018s0.001,0.012,0.001,0.018
			c0,0.076,0.009,0.15,0.012,0.226c0.006,0.127,0.012,0.254,0.027,0.379c1.638,0.271,2.89,1.681,2.89,3.392
			c0,0.233-0.024,0.461-0.069,0.682c0.892,0.501,1.933,0.794,3.051,0.794c0.895,0,1.74-0.19,2.5-0.521
			c-0.051-0.234-0.081-0.478-0.081-0.728c0-1.894,1.53-3.428,3.423-3.445c0.029-0.182,0.047-0.366,0.056-0.553
			c0.004-0.081,0.013-0.161,0.013-0.243C250.854,275.843,249.769,274.143,248.135,273.165z"/>
		<path fill="#3B3BFF" d="M242.469,271.881h-0.72v0.647C241.96,272.282,242.197,272.06,242.469,271.881z"/>
		<path fill="#3B3BFF" d="M247.818,274.762c0,0.298-0.05,0.583-0.121,0.858c0.181,0.291,0.315,0.608,0.381,0.95h0.057v-3.405v-1.284
			h-1.878C247.196,272.497,247.818,273.556,247.818,274.762z"/>
		<path fill="#3B3BFF" d="M244.363,278.209c-1.045,0-1.97-0.472-2.604-1.203c-0.001,0.03-0.009,0.058-0.009,0.088
			c0,1.637,1.429,2.964,3.192,2.964c1.764,0,3.193-1.327,3.193-2.964c0-0.18-0.024-0.353-0.057-0.523
			c-0.066-0.342-0.2-0.659-0.381-0.95C247.313,277.106,245.973,278.209,244.363,278.209z"/>
		<path fill="#FFFFFF" d="M239.03,270.774c0.787-0.246,1.452-0.755,1.884-1.436c0.148-0.232,0.261-0.486,0.35-0.752
			c0.054-0.161,0.103-0.323,0.132-0.493c0.034-0.193,0.06-0.391,0.06-0.594c0-1.904-1.547-3.449-3.456-3.449
			c-1.909,0-3.456,1.545-3.456,3.449s1.547,3.447,3.456,3.447c0.119,0,0.232-0.023,0.348-0.035c0.015-0.001,0.029-0.003,0.043-0.004
			C238.612,270.883,238.824,270.839,239.03,270.774z"/>
		<path fill="#FFFFFF" d="M247.69,268.587c0.089,0.266,0.202,0.52,0.35,0.752c0.596,0.938,1.628,1.564,2.814,1.599
			c0.034,0.001,0.065,0.01,0.1,0.01c0.185,0,0.363-0.026,0.54-0.055c0.003,0,0.006,0,0.01-0.001
			c1.646-0.264,2.906-1.675,2.906-3.392c0-1.904-1.547-3.449-3.456-3.449s-3.456,1.545-3.456,3.449c0,0.203,0.026,0.4,0.06,0.594
			C247.588,268.264,247.636,268.426,247.69,268.587z"/>
		<path fill="#FFFFFF" d="M240.907,274.762c0,0.862,0.328,1.641,0.852,2.244c0.634,0.731,1.559,1.203,2.604,1.203
			c1.61,0,2.95-1.103,3.334-2.589c0.071-0.275,0.121-0.561,0.121-0.858c0-1.206-0.623-2.265-1.562-2.881
			c-0.544-0.357-1.193-0.568-1.894-0.568s-1.35,0.211-1.894,0.568c-0.272,0.179-0.508,0.401-0.72,0.647
			c-0.268,0.312-0.481,0.669-0.624,1.063C240.991,273.959,240.907,274.349,240.907,274.762z"/>
		<path fill="#FFFFFF" d="M241.891,282.477c0.044-0.221,0.069-0.448,0.069-0.682c0-1.711-1.252-3.121-2.89-3.392
			c-0.185-0.03-0.372-0.057-0.565-0.057c-0.031,0-0.06,0.009-0.091,0.009c-1.866,0.05-3.365,1.566-3.365,3.439
			c0,1.904,1.547,3.447,3.456,3.447c1.407,0,2.612-0.842,3.151-2.045C241.758,282.968,241.84,282.729,241.891,282.477z"/>
		<path fill="#FFFFFF" d="M250.816,278.574c-0.011,0-0.021,0.003-0.032,0.003c-1.894,0.018-3.423,1.552-3.423,3.445
			c0,0.25,0.03,0.493,0.081,0.728c0.054,0.249,0.139,0.484,0.243,0.71c0.547,1.184,1.739,2.011,3.132,2.011
			c1.909,0,3.456-1.544,3.456-3.448c0-1.688-1.219-3.089-2.826-3.385C251.242,278.6,251.032,278.574,250.816,278.574z"/>
		<polygon fill="#FFFF00" points="192.367,173.256 192.367,170.785 184.502,170.785 184.502,173.316 182.245,173.316 
			182.245,170.785 176.01,170.785 176.01,176.834 173.468,176.834 173.468,179.026 202.762,179.026 202.762,176.834 200.91,176.834 
			200.91,170.785 194.625,170.785 194.625,173.256 		"/>
		<rect x="182.343" y="162.994" fill="#FFFF00" width="2.257" height="2.945"/>
		<polygon fill="#FFFF00" points="173.467,170.768 182.245,170.768 182.245,170.371 184.502,170.371 184.502,170.768 
			192.367,170.768 192.367,170.311 194.625,170.311 194.625,170.768 202.761,170.768 202.761,168.716 202.773,168.716 
			202.773,165.771 200.516,165.771 200.516,168.695 198.156,168.695 198.156,165.77 195.899,165.77 195.899,168.695 
			193.584,168.695 193.584,165.961 182.337,165.961 182.337,168.695 180.22,168.695 180.22,165.83 177.963,165.83 177.963,168.695 
			175.722,168.695 175.722,165.771 173.464,165.771 173.464,168.716 173.467,168.716 		"/>
		<path fill="#FFFF00" d="M188.505,182.958c-3.78,0-6.845,3.23-6.842,7.21l13.694,0.078c0-0.032,0-0.058,0-0.09
			C195.354,186.176,192.285,182.951,188.505,182.958z"/>
		<rect x="191.341" y="162.994" fill="#FFFF00" width="2.257" height="2.945"/>
		<rect x="186.96" y="162.935" fill="#FFFF00" width="2.257" height="2.945"/>
		<rect x="173.813" y="190.845" fill="#FFFF00" width="29.294" height="2.193"/>
		<path fill="#FFFF00" d="M185.09,190.587l-4.188-0.024c-0.003-4.422,3.402-8.011,7.602-8.011c4.2-0.007,7.611,3.576,7.614,7.998
			c0,0.013,0,0.025,0,0.037h4.792v-10.96h-24.9v10.96H185.09z"/>
		<path fill="#FFFF00" d="M185.09,190.587l11.027,0.063c0-0.022,0-0.042,0-0.063H185.09z"/>
		<polygon fill="#FF0000" points="184.502,173.316 184.502,170.785 184.502,170.768 184.502,170.371 182.245,170.371 
			182.245,170.768 182.245,170.785 182.245,173.316 		"/>
		<polygon fill="#FF0000" points="192.367,170.311 192.367,170.768 192.367,170.785 192.367,173.256 194.625,173.256 
			194.625,170.785 194.625,170.768 194.625,170.311 		"/>
		<path fill="#FFFF00" d="M300.949,183.308c-3.78,0-6.845,3.23-6.842,7.21l13.694,0.078c0-0.031,0-0.058,0-0.089
			C307.799,186.527,304.729,183.302,300.949,183.308z"/>
		<rect x="286.257" y="191.196" fill="#FFFF00" width="29.295" height="2.192"/>
		<path fill="#FFFF00" d="M297.62,190.938l10.942,0.062c0-0.021,0-0.042,0-0.062H297.62z"/>
		<path fill="#FFFF00" d="M288.454,179.978v10.96h9.166l-4.274-0.024c-0.003-4.422,3.403-8.011,7.603-8.011
			c4.199-0.007,7.61,3.576,7.614,7.998c0,0.013,0,0.025,0,0.037h4.792v-10.96H288.454z"/>
		<polygon fill="#FFFF00" points="307.059,173.607 304.802,173.607 304.802,171.136 296.937,171.136 296.937,173.667 
			294.68,173.667 294.68,171.136 288.454,171.136 288.454,177.185 285.912,177.185 285.912,179.377 315.206,179.377 
			315.206,177.185 313.354,177.185 313.354,171.136 307.059,171.136 		"/>
		<polygon fill="#FFFF00" points="312.96,166.121 312.96,169.045 310.6,169.045 310.6,166.121 308.343,166.121 308.343,169.045 
			306.028,169.045 306.028,166.312 294.781,166.312 294.781,169.045 292.665,169.045 292.665,166.18 290.407,166.18 
			290.407,169.045 288.166,169.045 288.166,166.121 285.909,166.121 285.909,169.066 285.911,169.066 285.911,171.119 
			294.68,171.119 294.68,170.722 296.937,170.722 296.937,171.119 304.802,171.119 304.802,170.662 307.059,170.662 
			307.059,171.119 315.205,171.119 315.205,169.066 315.217,169.066 315.217,166.121 		"/>
		<rect x="294.787" y="163.345" fill="#FFFF00" width="2.257" height="2.945"/>
		<rect x="303.785" y="163.345" fill="#FFFF00" width="2.257" height="2.945"/>
		<rect x="299.404" y="163.285" fill="#FFFF00" width="2.257" height="2.945"/>
		<polygon fill="#FF0000" points="294.68,173.667 296.937,173.667 296.937,171.136 296.937,171.119 296.937,170.722 294.68,170.722 
			294.68,171.119 294.68,171.136 		"/>
		<polygon fill="#FF0000" points="304.802,170.662 304.802,171.119 304.802,171.136 304.802,173.607 307.059,173.607 
			307.059,171.136 307.059,171.119 307.059,170.662 		"/>
		<polygon fill="#FFFF00" points="230.745,171.119 239.513,171.119 239.513,170.722 241.77,170.722 241.77,171.119 249.635,171.119 
			249.635,170.662 251.892,170.662 251.892,171.119 260.039,171.119 260.039,169.066 260.051,169.066 260.051,166.121 
			257.793,166.121 257.793,169.045 255.434,169.045 255.434,166.121 253.177,166.121 253.177,169.045 250.862,169.045 
			250.862,166.312 239.614,166.312 239.614,169.045 237.498,169.045 237.498,166.18 235.241,166.18 235.241,169.045 
			232.999,169.045 232.999,166.121 230.742,166.121 230.742,169.066 230.745,169.066 		"/>
		<rect x="239.621" y="163.345" fill="#FFFF00" width="2.257" height="2.945"/>
		<rect x="244.238" y="163.285" fill="#FFFF00" width="2.257" height="2.945"/>
		<rect x="248.618" y="163.345" fill="#FFFF00" width="2.257" height="2.945"/>
		<polygon fill="#FFFF00" points="249.635,173.607 249.635,171.136 241.77,171.136 241.77,173.667 239.513,173.667 239.513,171.136 
			233.288,171.136 233.288,177.185 230.746,177.185 230.746,179.377 260.04,179.377 260.04,177.185 258.188,177.185 
			258.188,171.136 251.892,171.136 251.892,173.607 		"/>
		<path fill="#FFFF00" d="M258.188,179.978h-24.9v10.96h9.166l-4.274-0.024c-0.003-4.422,3.402-8.011,7.602-8.011
			c4.2-0.007,7.611,3.576,7.614,7.998c0,0.013,0,0.025,0,0.037h4.792V179.978z"/>
		<path fill="#FFFF00" d="M245.782,183.308c-3.779,0-6.845,3.23-6.841,7.21l13.694,0.078c0-0.031,0-0.058,0-0.089
			C252.632,186.527,249.562,183.302,245.782,183.308z"/>
		<path fill="#FFFF00" d="M242.454,190.938l10.941,0.062c0-0.021,0-0.042,0-0.062H242.454z"/>
		<polygon fill="#FFFF00" points="260.385,193.389 260.385,192.495 260.385,191.196 231.09,191.196 231.09,192.495 231.09,193.389 
					"/>
		<polygon fill="#FF0000" points="241.77,173.667 241.77,171.136 241.77,171.119 241.77,170.722 239.513,170.722 239.513,171.119 
			239.513,171.136 239.513,173.667 		"/>
		<polygon fill="#FF0000" points="249.635,170.662 249.635,171.119 249.635,171.136 249.635,173.607 251.892,173.607 
			251.892,171.136 251.892,171.119 251.892,170.662 		"/>
		<polygon fill="#FFFF00" points="176.728,239.482 179.786,239.482 179.786,239.09 182.042,239.09 182.042,239.482 189.908,239.482 
			189.908,239.03 192.165,239.03 192.165,239.482 200.302,239.482 200.302,237.43 200.313,237.43 200.313,234.484 198.057,234.484 
			198.057,237.409 195.696,237.409 195.696,234.484 193.439,234.484 193.439,237.409 191.125,237.409 191.125,234.675 
			179.877,234.675 179.877,237.409 177.761,237.409 177.761,237.31 177.761,234.544 175.504,234.544 175.504,237.409 
			173.262,237.409 173.262,234.484 171.159,234.484 171.005,234.484 171.005,237.43 171.007,237.43 171.007,239.482 
			171.159,239.482 		"/>
		<polygon fill="#FFFF00" points="171.354,260.724 171.354,261.752 200.647,261.752 200.647,259.56 171.449,259.56 171.354,259.56 
					"/>
		<polygon fill="#FFFF00" points="200.303,247.74 200.303,245.548 198.45,245.548 198.45,239.5 192.165,239.5 192.165,241.976 
			189.908,241.976 189.908,239.5 182.042,239.5 182.042,242.035 179.786,242.035 179.786,239.5 176.721,239.5 173.55,239.5 
			173.55,245.548 171.159,245.548 171.009,245.548 171.009,247.74 171.159,247.74 173.7,247.74 		"/>
		<path fill="#FFFF00" d="M182.669,259.302l10.989,0.063c0-0.022,0-0.043,0-0.063H182.669z"/>
		<path fill="#FFFF00" d="M192.898,258.96c0-0.032,0-0.058,0-0.09c-0.003-3.979-3.073-7.204-6.853-7.198
			c-3.78,0-6.845,3.23-6.842,7.21L192.898,258.96z"/>
		<path fill="#FFFF00" d="M198.45,248.342h-24.9v10.96h9.119l-4.227-0.024c-0.003-4.422,3.402-8.01,7.602-8.01
			c4.2-0.008,7.611,3.575,7.614,7.998c0,0.013,0,0.024,0,0.036h4.792V248.342z"/>
		<rect x="188.881" y="231.708" fill="#FFFF00" width="2.257" height="2.945"/>
		<polygon fill="#FFFF00" points="182.141,234.654 182.141,231.708 180.866,231.708 179.884,231.708 179.884,233.314 
			179.884,234.654 		"/>
		<rect x="184.501" y="231.649" fill="#FFFF00" width="2.257" height="2.945"/>
		<polygon fill="#FF0000" points="179.786,242.035 182.042,242.035 182.042,239.5 182.042,239.482 182.042,239.09 179.786,239.09 
			179.786,239.482 179.786,239.5 		"/>
		<polygon fill="#FF0000" points="189.908,241.976 192.165,241.976 192.165,239.5 192.165,239.482 192.165,239.03 189.908,239.03 
			189.908,239.482 189.908,239.5 		"/>
		<path fill="#FFFF00" d="M303.06,250.977c-3.779,0-6.844,3.229-6.841,7.209l13.694,0.078c0.001-0.031,0.001-0.058,0.001-0.09
			C309.91,254.195,306.84,250.97,303.06,250.977z"/>
		<path fill="#FFFF00" d="M310.673,258.669c0-0.022,0-0.042,0-0.062h-10.942L310.673,258.669z"/>
		<polygon fill="#FFFF00" points="288.368,258.863 288.368,261.057 317.325,261.057 317.51,261.057 317.662,261.057 
			317.662,258.863 317.51,258.863 317.145,258.863 		"/>
		<path fill="#FFFF00" d="M290.565,258.606h9.166l-4.274-0.024c-0.003-4.422,3.402-8.011,7.602-8.011
			c4.2-0.007,7.611,3.576,7.614,7.998c0,0.013,0,0.025,0,0.037h4.792v-8.982v-1.979h-0.543h-24.357V258.606z"/>
		<polygon fill="#FFFF00" points="310.454,236.713 308.14,236.713 308.14,233.979 296.892,233.979 296.892,236.713 294.775,236.713 
			294.775,233.848 292.519,233.848 292.519,236.713 290.276,236.713 290.276,233.789 288.02,233.789 288.02,236.734 
			288.022,236.734 288.022,238.787 296.791,238.787 296.791,238.385 299.048,238.385 299.048,238.787 306.913,238.787 
			306.913,238.325 309.17,238.325 309.17,238.787 311.609,238.787 317.316,238.787 317.316,236.734 317.328,236.734 
			317.328,233.789 315.071,233.789 315.071,236.713 312.711,236.713 312.711,233.788 310.454,233.788 310.454,236.414 		"/>
		<polygon fill="#FFFF00" points="309.17,241.27 306.913,241.27 306.913,238.804 299.048,238.804 299.048,241.33 296.791,241.33 
			296.791,238.804 290.565,238.804 290.565,244.853 288.023,244.853 288.023,247.045 314.738,247.045 317.317,247.045 
			317.317,244.853 315.465,244.853 315.465,238.804 311.618,238.804 309.17,238.804 		"/>
		<rect x="301.516" y="230.953" fill="#FFFF00" width="2.257" height="2.945"/>
		<polygon fill="#FFFF00" points="305.896,233.958 308.152,233.958 308.152,232.302 308.152,231.012 307.354,231.012 
			305.896,231.012 		"/>
		<rect x="296.898" y="231.013" fill="#FFFF00" width="2.257" height="2.945"/>
		<polygon fill="#FF0000" points="299.048,241.33 299.048,238.804 299.048,238.787 299.048,238.385 296.791,238.385 
			296.791,238.787 296.791,238.804 296.791,241.33 		"/>
		<polygon fill="#FF0000" points="306.913,241.27 309.17,241.27 309.17,238.804 309.17,238.787 309.17,238.325 306.913,238.325 
			306.913,238.787 306.913,238.804 		"/>
		<path fill="#FFFF00" d="M214.352,312.084l-2.71,3.103c-3.36-2.884-3.862-7.802-1.12-10.976c2.736-3.18,7.683-3.419,11.042-0.535
			c0.01,0.009,0.019,0.017,0.028,0.024l3.128-3.622l-8.322-7.154l-16.254,18.821l8.322,7.154L214.352,312.084z"/>
		<polygon fill="#FFFF00" points="198.655,299.289 198.957,299.549 204.09,293.604 203.744,293.306 205.217,291.6 205.563,291.897 
			210.88,285.741 209.321,284.401 209.329,284.393 207.093,282.471 205.62,284.176 207.84,286.085 206.299,287.869 204.079,285.959 
			202.605,287.666 204.826,289.574 203.315,291.324 201.239,289.54 193.897,298.041 195.974,299.826 194.592,301.426 
			192.417,299.556 190.943,301.262 193.119,303.133 191.655,304.827 189.435,302.918 187.961,304.624 190.198,306.547 
			190.199,306.545 191.758,307.885 197.483,301.255 197.182,300.996 		"/>
		<path fill="#FFFF00" d="M210.829,304.475c-2.467,2.856-2.016,7.281,1.008,9.877l8.999-10.3c-0.024-0.021-0.044-0.038-0.068-0.059
			C217.744,301.397,213.292,301.613,210.829,304.475z"/>
		<polygon fill="#FFFF00" points="228.014,300.017 226.35,298.586 207.228,320.729 208.892,322.16 		"/>
		<polygon fill="#FFFF00" points="217.15,291.131 215.486,289.7 214.277,291.101 209.685,287.152 205.577,291.909 207.453,293.521 
			205.98,295.229 204.104,293.615 198.97,299.56 200.891,301.213 199.418,302.918 197.496,301.267 193.431,305.974 198.023,309.922 
			196.364,311.844 198.028,313.273 		"/>
		<path fill="#FFFF00" d="M214.352,312.084l7.288-8.342c-0.017-0.015-0.032-0.028-0.047-0.042L214.352,312.084z"/>
		<polygon fill="#FFFF00" points="199.759,291.222 201.232,289.516 198.996,287.594 197.522,289.299 		"/>
		<polygon fill="#FFFF00" points="196.854,294.494 198.328,292.788 196.091,290.865 194.618,292.572 		"/>
		<polygon fill="#FFFF00" points="195.359,296.317 193.123,294.395 191.649,296.101 193.886,298.023 		"/>
		<polygon fill="#FF0000" points="200.891,301.213 198.97,299.56 198.957,299.549 198.655,299.289 197.182,300.996 197.483,301.255 
			197.496,301.267 199.418,302.918 		"/>
		<polygon fill="#FF0000" points="205.217,291.6 203.744,293.306 204.09,293.604 204.104,293.615 205.98,295.229 207.453,293.521 
			205.577,291.909 205.563,291.897 		"/>
		<polygon fill="#FFFF00" points="288.532,289.168 290.005,290.874 292.242,288.951 290.769,287.245 		"/>
		<polygon fill="#FFFF00" points="295.146,292.224 293.673,290.518 291.437,292.44 292.91,294.146 		"/>
		<polygon fill="#FFFF00" points="294.405,295.969 295.878,297.676 298.114,295.753 296.641,294.047 		"/>
		<path fill="#FFFF00" d="M268.125,303.394l7.214,8.258l-7.167-8.299C268.157,303.366,268.142,303.38,268.125,303.394z"/>
		<path fill="#FFFF00" d="M273.366,292.576l-8.322,7.154l3.128,3.622c0.009-0.008,0.018-0.016,0.028-0.024
			c3.36-2.884,8.307-2.645,11.043,0.535c2.741,3.174,2.24,8.091-1.12,10.975l-2.784-3.187l5.959,6.9l8.322-7.154L273.366,292.576z"
			/>
		<polygon fill="#FFFF00" points="288.872,300.864 290.794,299.212 285.66,293.267 283.783,294.881 282.31,293.174 284.187,291.561 
			280.08,286.805 275.487,290.752 274.278,289.352 272.613,290.783 291.736,312.926 293.4,311.495 291.741,309.574 296.333,305.626 
			292.268,300.918 290.345,302.57 		"/>
		<path fill="#FFFF00" d="M278.935,304.127c-2.462-2.861-6.915-3.077-9.938-0.481c-0.024,0.021-0.044,0.038-0.068,0.059l8.998,10.3
			C280.951,311.408,281.402,306.983,278.935,304.127z"/>
		<polygon fill="#FFFF00" points="288.524,289.192 286.449,290.978 284.938,289.228 287.159,287.318 285.686,285.611 
			283.464,287.521 281.924,285.737 284.145,283.828 282.671,282.122 280.435,284.045 280.442,284.054 278.884,285.394 284.2,291.55 
			284.546,291.252 286.02,292.957 285.673,293.255 290.807,299.2 291.108,298.941 292.582,300.648 292.28,300.907 298.006,307.537 
			299.564,306.197 299.566,306.199 301.803,304.276 300.329,302.57 298.108,304.479 296.645,302.785 298.821,300.914 
			297.348,299.208 295.172,301.079 293.791,299.479 295.866,297.693 		"/>
		<polygon fill="#FFFF00" points="263.415,298.238 261.75,299.669 280.872,321.812 282.537,320.381 		"/>
		<polygon fill="#FF0000" points="291.108,298.941 290.807,299.2 290.794,299.212 288.872,300.864 290.345,302.57 292.268,300.918 
			292.28,300.907 292.582,300.648 		"/>
		<polygon fill="#FF0000" points="283.783,294.881 285.66,293.267 285.673,293.255 286.02,292.957 284.546,291.252 284.2,291.55 
			284.187,291.561 282.31,293.174 		"/>
		<path fill="#3B3BFF" d="M233.02,218.888c0.002-1.159,0.208-2.272,0.576-3.317v-12.48h21.953v12.478
			c0.371,1.051,0.578,2.171,0.578,3.338c0,0.161-0.019,0.317-0.026,0.476h0.027v-1.641v-15.332H233.02v15.332V218.888z"/>
		<path fill="#3B3BFF" d="M233.02,218.924v0.458h0.025C233.038,219.229,233.021,219.078,233.02,218.924z"/>
		<path fill="#3B3BFF" d="M256.126,218.906c0-1.167-0.207-2.287-0.578-3.338v3.646h-0.026c-0.256,5.417-5.054,9.74-10.952,9.74
			s-10.695-4.322-10.952-9.74h-0.023v-0.434c0-0.006-0.001-0.012-0.001-0.018s0.001-0.012,0.001-0.018v-3.173
			c-0.368,1.045-0.574,2.159-0.576,3.317c0,0.006-0.001,0.012-0.001,0.018s0.001,0.012,0.001,0.018c0,0.154,0.018,0.305,0.025,0.458
			c0.271,5.702,5.32,10.252,11.528,10.252s11.257-4.55,11.528-10.252C256.108,219.223,256.126,219.066,256.126,218.906z"/>
		<path fill="#3B3BFF" d="M233.596,218.744c0.006-3.321,1.73-6.26,4.383-8.117c-0.116,0.012-0.229,0.035-0.348,0.035
			c-1.909,0-3.456-1.544-3.456-3.448s1.547-3.448,3.456-3.448s3.456,1.544,3.456,3.448c0,0.204-0.026,0.4-0.06,0.594h6.162
			c-0.034-0.194-0.06-0.391-0.06-0.594c0-1.904,1.547-3.448,3.456-3.448c1.909,0,3.456,1.544,3.456,3.448
			c0,1.716-1.26,3.128-2.906,3.393c2.674,1.858,4.413,4.814,4.413,8.155c0,0.152-0.018,0.301-0.024,0.452h0.026v-3.646V203.09
			h-21.953v12.48V218.744z"/>
		<path fill="#3B3BFF" d="M233.596,218.78v0.434h0.023C233.612,219.068,233.596,218.926,233.596,218.78z"/>
		<path fill="#3B3BFF" d="M255.547,218.762c0-3.34-1.739-6.296-4.413-8.155c-0.003,0-0.006,0-0.01,0.001v7.317h-0.016
			c-0.007,0.144-0.014,0.287-0.032,0.427c1.607,0.296,2.826,1.696,2.826,3.385c0,1.904-1.547,3.448-3.456,3.448
			c-1.393,0-2.586-0.827-3.133-2.011c-0.835,0.358-1.762,0.564-2.742,0.564c-1.199,0-2.319-0.304-3.286-0.827
			c-0.54,1.204-1.745,2.046-3.152,2.046c-1.908,0-3.456-1.544-3.456-3.448c0-1.874,1.5-3.39,3.365-3.439
			c-0.003-0.048-0.005-0.097-0.008-0.145h-0.014v-0.261c0-0.003,0-0.006,0-0.009s0-0.006,0-0.009v-7.023
			c-0.014,0.002-0.029,0.003-0.043,0.004c-2.653,1.856-4.376,4.796-4.383,8.117c0,0.006-0.001,0.012-0.001,0.018
			s0.001,0.012,0.001,0.018c0,0.146,0.017,0.289,0.023,0.434c0.256,5.417,5.054,9.74,10.952,9.74s10.695-4.322,10.952-9.74
			C255.529,219.062,255.547,218.914,255.547,218.762z"/>
		<path fill="#3B3BFF" d="M247.321,208.301c-0.054-0.161-0.103-0.323-0.132-0.493h-6.162c-0.03,0.17-0.079,0.333-0.132,0.493
			H247.321z"/>
		<path fill="#3B3BFF" d="M238.021,217.664v0.261h0.014C238.032,217.838,238.021,217.752,238.021,217.664z"/>
		<path fill="#3B3BFF" d="M250.584,210.662c-0.034,0-0.065-0.009-0.099-0.01v4.397c0.405,0.791,0.638,1.672,0.638,2.605
			c0,0.091-0.01,0.18-0.015,0.27h0.016v-7.317C250.947,210.636,250.769,210.662,250.584,210.662z"/>
		<path fill="#3B3BFF" d="M238.66,215.048v-4.56c-0.206,0.064-0.418,0.109-0.638,0.134v7.023
			C238.023,216.715,238.256,215.837,238.66,215.048z"/>
		<path fill="#3B3BFF" d="M247.67,209.053c-0.148-0.232-0.261-0.486-0.35-0.752h-6.427c-0.089,0.266-0.202,0.52-0.35,0.752H247.67z"
			/>
		<path fill="#3B3BFF" d="M247.071,222.464c-0.76,0.33-1.605,0.52-2.5,0.52c-1.118,0-2.159-0.293-3.05-0.793
			c-0.051,0.252-0.133,0.491-0.235,0.72c0.967,0.522,2.087,0.827,3.286,0.827c0.98,0,1.907-0.206,2.742-0.564
			C247.21,222.948,247.125,222.713,247.071,222.464z"/>
		<path fill="#3B3BFF" d="M238.7,218.118c-0.015-0.125-0.021-0.252-0.027-0.379h-0.013v-0.234c0-0.003,0-0.006,0-0.009
			s0-0.006,0-0.009v-2.438c-0.404,0.789-0.637,1.667-0.638,2.598c0,0.003,0,0.006,0,0.009s0,0.006,0,0.009
			c0,0.088,0.01,0.174,0.014,0.261c0.002,0.048,0.004,0.097,0.008,0.145c0.031-0.001,0.06-0.009,0.09-0.009
			C238.328,218.061,238.515,218.087,238.7,218.118z"/>
		<path fill="#3B3BFF" d="M251.123,217.655c0-0.934-0.233-1.815-0.638-2.605v2.689h-0.014c-0.009,0.187-0.027,0.372-0.056,0.554
			c0.011,0,0.021-0.003,0.032-0.003c0.216,0,0.425,0.026,0.63,0.063c0.018-0.141,0.025-0.284,0.032-0.427
			C251.113,217.834,251.123,217.746,251.123,217.655z"/>
		<path fill="#3B3BFF" d="M238.66,215.048v2.438c0.003-1.677,0.817-3.175,2.095-4.181c0.144-0.394,0.356-0.75,0.625-1.062v-0.648
			h0.721c0.544-0.356,1.193-0.567,1.893-0.567c0.699,0,1.348,0.211,1.892,0.567h1.879v1.285c1.634,0.977,2.719,2.677,2.719,4.616
			c0,0.082-0.009,0.162-0.013,0.243h0.014v-2.689v-4.397c-1.187-0.034-2.219-0.662-2.814-1.599h-7.126
			c-0.433,0.681-1.098,1.189-1.885,1.436V215.048z"/>
		<path fill="#3B3BFF" d="M238.66,217.738h0.013c-0.003-0.078-0.013-0.155-0.013-0.234V217.738z"/>
		<path fill="#3B3BFF" d="M247.765,212.879v3.405h-0.056c0.033,0.17,0.057,0.344,0.057,0.523c0,1.637-1.43,2.964-3.193,2.964
			s-3.193-1.327-3.193-2.964c0-0.03,0.008-0.058,0.009-0.088c-0.523-0.604-0.852-1.382-0.852-2.244c0-0.413,0.085-0.803,0.218-1.17
			c-1.278,1.005-2.092,2.504-2.095,4.181c0,0.003,0,0.006,0,0.009s0,0.006,0,0.009c0,0.079,0.009,0.156,0.013,0.234
			c0.006,0.127,0.012,0.254,0.027,0.379c1.638,0.271,2.89,1.68,2.89,3.391c0,0.233-0.024,0.461-0.069,0.682
			c0.891,0.5,1.933,0.793,3.05,0.793c0.895,0,1.74-0.19,2.5-0.52c-0.051-0.235-0.081-0.478-0.081-0.728
			c0-1.893,1.53-3.427,3.424-3.445c0.029-0.182,0.047-0.367,0.056-0.554c0.004-0.081,0.013-0.161,0.013-0.243
			C250.484,215.556,249.399,213.856,247.765,212.879z"/>
		<path fill="#3B3BFF" d="M242.101,211.595h-0.721v0.648C241.591,211.997,241.828,211.773,242.101,211.595z"/>
		<path fill="#3B3BFF" d="M247.449,214.476c0,0.298-0.05,0.583-0.121,0.859c0.181,0.291,0.315,0.608,0.381,0.95h0.056v-3.405v-1.285
			h-1.879C246.826,212.211,247.449,213.27,247.449,214.476z"/>
		<path fill="#3B3BFF" d="M247.328,215.334c-0.384,1.486-1.725,2.589-3.334,2.589c-1.045,0-1.971-0.473-2.604-1.204
			c-0.001,0.03-0.009,0.058-0.009,0.088c0,1.637,1.43,2.964,3.193,2.964s3.193-1.327,3.193-2.964c0-0.179-0.024-0.353-0.057-0.523
			C247.643,215.942,247.508,215.625,247.328,215.334z"/>
		<path fill="#FFFFFF" d="M238.66,210.489c0.787-0.246,1.452-0.754,1.885-1.436c0.147-0.232,0.261-0.486,0.35-0.752
			c0.054-0.161,0.103-0.323,0.132-0.493c0.034-0.194,0.06-0.391,0.06-0.594c0-1.904-1.547-3.448-3.456-3.448
			s-3.456,1.544-3.456,3.448s1.547,3.448,3.456,3.448c0.119,0,0.232-0.023,0.348-0.035c0.014-0.001,0.029-0.002,0.043-0.004
			C238.242,210.598,238.454,210.553,238.66,210.489z"/>
		<path fill="#FFFFFF" d="M247.67,209.053c0.596,0.938,1.628,1.565,2.814,1.599c0.034,0.001,0.065,0.01,0.099,0.01
			c0.185,0,0.363-0.026,0.54-0.054c0.003,0,0.007,0,0.01-0.001c1.646-0.265,2.906-1.677,2.906-3.393
			c0-1.904-1.547-3.448-3.456-3.448c-1.908,0-3.456,1.544-3.456,3.448c0,0.204,0.026,0.4,0.06,0.594
			c0.03,0.17,0.079,0.333,0.132,0.493C247.41,208.567,247.522,208.821,247.67,209.053z"/>
		<path fill="#FFFFFF" d="M241.389,216.72c0.634,0.731,1.56,1.204,2.604,1.204c1.609,0,2.95-1.103,3.334-2.589
			c0.071-0.276,0.121-0.561,0.121-0.859c0-1.206-0.623-2.265-1.563-2.881c-0.544-0.356-1.193-0.567-1.892-0.567
			c-0.7,0-1.349,0.211-1.893,0.567c-0.273,0.179-0.509,0.402-0.721,0.648c-0.268,0.312-0.481,0.668-0.625,1.062
			c-0.133,0.367-0.218,0.757-0.218,1.17C240.537,215.337,240.865,216.115,241.389,216.72z"/>
		<path fill="#FFFFFF" d="M241.521,222.191c0.044-0.221,0.069-0.449,0.069-0.682c0-1.711-1.252-3.121-2.89-3.391
			c-0.185-0.031-0.372-0.057-0.566-0.057c-0.031,0-0.06,0.008-0.09,0.009c-1.865,0.049-3.365,1.565-3.365,3.439
			c0,1.904,1.547,3.448,3.456,3.448c1.407,0,2.612-0.842,3.152-2.046C241.388,222.682,241.47,222.443,241.521,222.191z"/>
		<path fill="#FFFFFF" d="M250.447,218.289c-0.011,0-0.021,0.003-0.032,0.003c-1.894,0.018-3.424,1.552-3.424,3.445
			c0,0.25,0.03,0.493,0.081,0.728c0.054,0.249,0.139,0.484,0.243,0.709c0.547,1.185,1.74,2.011,3.133,2.011
			c1.909,0,3.456-1.544,3.456-3.448c0-1.689-1.219-3.088-2.826-3.385C250.872,218.314,250.663,218.289,250.447,218.289z"/>
		<path fill="#3B3BFF" d="M233.02,248.884v0.458h0.025C233.038,249.189,233.021,249.039,233.02,248.884z"/>
		<path fill="#3B3BFF" d="M233.02,248.849c0.002-1.159,0.208-2.272,0.576-3.317V233.05h21.953v12.479
			c0.371,1.052,0.578,2.172,0.578,3.338c0,0.16-0.019,0.316-0.026,0.476h0.027v-13.298v-3.674H233.02v3.405V248.849z"/>
		<path fill="#3B3BFF" d="M256.126,248.866c0-1.166-0.207-2.286-0.578-3.338v3.646h-0.026c-0.257,5.417-5.054,9.739-10.952,9.739
			s-10.695-4.322-10.952-9.739h-0.023v-0.435c0-0.006-0.001-0.012-0.001-0.018s0.001-0.012,0.001-0.018v-3.173
			c-0.368,1.045-0.574,2.158-0.576,3.317c0,0.006-0.001,0.012-0.001,0.018s0.001,0.012,0.001,0.018c0,0.155,0.018,0.306,0.025,0.458
			c0.27,5.702,5.32,10.252,11.528,10.252s11.258-4.55,11.528-10.252C256.108,249.183,256.126,249.026,256.126,248.866z"/>
		<path fill="#3B3BFF" d="M233.596,248.704c0.006-3.321,1.73-6.261,4.383-8.117c-0.117,0.012-0.229,0.035-0.349,0.035
			c-1.908,0-3.456-1.544-3.456-3.448s1.547-3.448,3.456-3.448c1.909,0,3.456,1.544,3.456,3.448c0,0.204-0.026,0.4-0.06,0.594h6.162
			c-0.034-0.194-0.06-0.391-0.06-0.594c0-1.904,1.547-3.448,3.456-3.448c1.908,0,3.456,1.544,3.456,3.448
			c0,1.717-1.261,3.129-2.906,3.393c2.674,1.859,4.413,4.815,4.413,8.155c0,0.152-0.018,0.301-0.024,0.452h0.026v-3.646V233.05
			h-21.953v12.481V248.704z"/>
		<path fill="#3B3BFF" d="M233.596,248.739v0.435h0.023C233.612,249.029,233.596,248.886,233.596,248.739z"/>
		<path fill="#3B3BFF" d="M255.547,248.722c0-3.34-1.739-6.296-4.413-8.155c-0.003,0.001-0.007,0.001-0.01,0.001v7.317h-0.016
			c-0.007,0.144-0.014,0.287-0.032,0.428c1.607,0.296,2.826,1.695,2.826,3.385c0,1.904-1.547,3.447-3.456,3.447
			c-1.393,0-2.586-0.826-3.133-2.011c-0.835,0.358-1.761,0.563-2.742,0.563c-1.199,0-2.319-0.304-3.286-0.826
			c-0.539,1.204-1.745,2.046-3.151,2.046c-1.909,0-3.456-1.544-3.456-3.448c0-1.873,1.5-3.39,3.365-3.439
			c-0.003-0.048-0.005-0.096-0.008-0.145h-0.014v-0.261c0-0.003,0-0.006,0-0.009s0-0.006,0-0.009v-7.023
			c-0.014,0.001-0.028,0.003-0.042,0.004c-2.653,1.856-4.377,4.796-4.383,8.117c0,0.006-0.001,0.012-0.001,0.018
			s0.001,0.012,0.001,0.018c0,0.146,0.017,0.29,0.023,0.435c0.257,5.417,5.054,9.739,10.952,9.739s10.695-4.322,10.952-9.739
			C255.529,249.022,255.547,248.874,255.547,248.722z"/>
		<path fill="#3B3BFF" d="M247.321,238.261c-0.054-0.161-0.103-0.323-0.132-0.493h-6.162c-0.03,0.17-0.079,0.333-0.132,0.493
			H247.321z"/>
		<path fill="#3B3BFF" d="M238.021,247.624v0.261h0.014C238.031,247.798,238.021,247.712,238.021,247.624z"/>
		<path fill="#3B3BFF" d="M238.66,245.009v-4.56c-0.206,0.065-0.418,0.109-0.638,0.134v7.023
			C238.023,246.676,238.256,245.797,238.66,245.009z"/>
		<path fill="#3B3BFF" d="M250.584,240.622c-0.034,0-0.066-0.009-0.1-0.01v4.397c0.405,0.791,0.638,1.672,0.638,2.605
			c0,0.091-0.01,0.18-0.015,0.27h0.016v-7.317C250.947,240.596,250.77,240.622,250.584,240.622z"/>
		<path fill="#3B3BFF" d="M247.67,239.013c-0.147-0.232-0.261-0.486-0.35-0.752h-6.427c-0.089,0.266-0.202,0.52-0.35,0.752H247.67z"
			/>
		<path fill="#3B3BFF" d="M247.071,252.425c-0.76,0.331-1.605,0.521-2.5,0.521c-1.118,0-2.159-0.293-3.05-0.794
			c-0.051,0.252-0.133,0.491-0.235,0.72c0.967,0.522,2.087,0.826,3.286,0.826c0.98,0,1.907-0.205,2.742-0.563
			C247.209,252.908,247.125,252.673,247.071,252.425z"/>
		<path fill="#3B3BFF" d="M238.7,248.077c-0.015-0.125-0.021-0.252-0.027-0.379h-0.013v-0.234c0-0.003,0-0.006,0-0.009
			s0-0.006,0-0.009v-2.438c-0.404,0.788-0.637,1.667-0.638,2.598c0,0.003,0,0.006,0,0.009s0,0.006,0,0.009
			c0,0.088,0.01,0.174,0.014,0.261c0.002,0.049,0.004,0.097,0.008,0.145c0.031,0,0.06-0.009,0.091-0.009
			C238.328,248.021,238.515,248.047,238.7,248.077z"/>
		<path fill="#3B3BFF" d="M250.485,245.01v2.688h-0.014c-0.009,0.188-0.027,0.372-0.056,0.554c0.011,0,0.021-0.003,0.032-0.003
			c0.216,0,0.425,0.025,0.63,0.063c0.018-0.141,0.025-0.284,0.032-0.428c0.004-0.09,0.015-0.179,0.015-0.27
			C251.123,246.682,250.89,245.801,250.485,245.01z"/>
		<path fill="#3B3BFF" d="M238.66,245.009v2.438c0.003-1.677,0.817-3.175,2.095-4.181c0.144-0.395,0.356-0.75,0.625-1.062v-0.648
			h0.721c0.544-0.356,1.193-0.567,1.893-0.567c0.699,0,1.348,0.211,1.892,0.567h1.879v1.284c1.634,0.978,2.719,2.678,2.719,4.616
			c0,0.082-0.009,0.162-0.013,0.243h0.014v-2.688v-4.397c-1.187-0.034-2.219-0.662-2.814-1.599h-7.126
			c-0.433,0.681-1.098,1.189-1.885,1.436V245.009z"/>
		<path fill="#3B3BFF" d="M238.66,247.698h0.013c-0.003-0.078-0.013-0.155-0.013-0.234V247.698z"/>
		<path fill="#3B3BFF" d="M247.765,242.839v3.405h-0.057c0.033,0.171,0.057,0.344,0.057,0.523c0,1.637-1.43,2.965-3.193,2.965
			s-3.192-1.328-3.192-2.965c0-0.03,0.008-0.058,0.009-0.087c-0.524-0.604-0.852-1.383-0.852-2.245c0-0.413,0.085-0.803,0.218-1.17
			c-1.278,1.006-2.092,2.504-2.095,4.181c0,0.003,0,0.006,0,0.009s0,0.006,0,0.009c0,0.079,0.009,0.156,0.013,0.234
			c0.006,0.127,0.012,0.254,0.027,0.379c1.638,0.271,2.89,1.681,2.89,3.392c0,0.233-0.024,0.462-0.069,0.683
			c0.891,0.501,1.933,0.794,3.05,0.794c0.895,0,1.74-0.189,2.5-0.521c-0.051-0.234-0.081-0.478-0.081-0.728
			c0-1.894,1.53-3.428,3.424-3.445c0.029-0.182,0.047-0.366,0.056-0.554c0.004-0.081,0.013-0.161,0.013-0.243
			C250.484,245.517,249.399,243.816,247.765,242.839z"/>
		<path fill="#3B3BFF" d="M242.101,241.555h-0.721v0.648C241.591,241.956,241.828,241.733,242.101,241.555z"/>
		<path fill="#3B3BFF" d="M247.449,244.436c0,0.299-0.05,0.583-0.121,0.859c0.181,0.29,0.315,0.607,0.38,0.949h0.057v-3.405v-1.284
			h-1.879C246.826,242.171,247.449,243.229,247.449,244.436z"/>
		<path fill="#3B3BFF" d="M247.328,245.295c-0.384,1.485-1.725,2.589-3.334,2.589c-1.045,0-1.97-0.473-2.604-1.203
			c-0.001,0.029-0.009,0.057-0.009,0.087c0,1.637,1.429,2.965,3.192,2.965s3.193-1.328,3.193-2.965c0-0.18-0.024-0.353-0.057-0.523
			C247.643,245.902,247.508,245.585,247.328,245.295z"/>
		<path fill="#FFFFFF" d="M238.66,240.449c0.787-0.246,1.452-0.754,1.885-1.436c0.147-0.232,0.261-0.486,0.35-0.752
			c0.054-0.161,0.103-0.323,0.132-0.493c0.034-0.194,0.06-0.391,0.06-0.594c0-1.904-1.547-3.448-3.456-3.448
			c-1.908,0-3.456,1.544-3.456,3.448s1.547,3.448,3.456,3.448c0.12,0,0.232-0.023,0.349-0.035c0.014-0.001,0.028-0.003,0.042-0.004
			C238.242,240.558,238.454,240.514,238.66,240.449z"/>
		<path fill="#FFFFFF" d="M247.67,239.013c0.596,0.938,1.628,1.565,2.814,1.599c0.034,0.001,0.065,0.01,0.1,0.01
			c0.185,0,0.363-0.026,0.54-0.055c0.003,0,0.006,0,0.01-0.001c1.646-0.264,2.906-1.676,2.906-3.393
			c0-1.904-1.547-3.448-3.456-3.448c-1.909,0-3.456,1.544-3.456,3.448c0,0.204,0.026,0.4,0.06,0.594
			c0.03,0.17,0.079,0.333,0.132,0.493C247.41,238.527,247.523,238.781,247.67,239.013z"/>
		<path fill="#FFFFFF" d="M241.389,246.681c0.634,0.73,1.559,1.203,2.604,1.203c1.609,0,2.95-1.104,3.334-2.589
			c0.071-0.276,0.121-0.561,0.121-0.859c0-1.206-0.623-2.265-1.563-2.881c-0.544-0.356-1.193-0.567-1.892-0.567
			c-0.7,0-1.349,0.211-1.893,0.567c-0.273,0.179-0.509,0.401-0.721,0.648c-0.268,0.312-0.481,0.668-0.625,1.062
			c-0.133,0.367-0.218,0.757-0.218,1.17C240.537,245.298,240.865,246.076,241.389,246.681z"/>
		<path fill="#FFFFFF" d="M241.521,252.151c0.044-0.221,0.069-0.449,0.069-0.683c0-1.711-1.252-3.121-2.89-3.392
			c-0.185-0.03-0.372-0.057-0.565-0.057c-0.031,0-0.06,0.009-0.091,0.009c-1.866,0.05-3.365,1.566-3.365,3.439
			c0,1.904,1.547,3.448,3.456,3.448c1.407,0,2.612-0.842,3.151-2.046C241.388,252.643,241.47,252.403,241.521,252.151z"/>
		<path fill="#FFFFFF" d="M250.447,248.249c-0.011,0-0.021,0.003-0.032,0.003c-1.894,0.018-3.424,1.552-3.424,3.445
			c0,0.25,0.03,0.493,0.081,0.728c0.053,0.248,0.138,0.483,0.242,0.709c0.547,1.185,1.74,2.011,3.133,2.011
			c1.909,0,3.456-1.543,3.456-3.447c0-1.689-1.219-3.089-2.826-3.385C250.872,248.274,250.663,248.249,250.447,248.249z"/>
		<path fill="#3B3BFF" d="M265.619,232.369h-6.966v5.53v10.95c0.002-1.16,0.208-2.273,0.576-3.319V233.05h21.953v12.479
			c0.371,1.052,0.578,2.172,0.578,3.338c0,0.16-0.019,0.316-0.026,0.476h0.028v-3.729v-13.243h-8.357H265.619z"/>
		<path fill="#3B3BFF" d="M258.653,249.342h0.025c-0.007-0.152-0.024-0.303-0.025-0.458V249.342z"/>
		<path fill="#3B3BFF" d="M281.182,245.528v3.646h-0.026c-0.257,5.417-5.054,9.739-10.952,9.739s-10.695-4.322-10.952-9.739h-0.023
			v-0.425c0-0.01-0.001-0.019-0.001-0.027s0.001-0.018,0.001-0.027v-3.165c-0.369,1.046-0.574,2.159-0.576,3.319
			c0,0.006-0.001,0.012-0.001,0.018s0.001,0.012,0.001,0.018c0,0.155,0.018,0.306,0.025,0.458c0.183,3.865,2.555,7.202,6.006,8.949
			c1.641,0.83,3.521,1.303,5.521,1.303c6.208,0,11.258-4.55,11.528-10.252c0.007-0.159,0.026-0.315,0.026-0.476
			C281.759,247.7,281.552,246.58,281.182,245.528z"/>
		<path fill="#3B3BFF" d="M259.229,248.694c0.009-3.316,1.732-6.252,4.382-8.107c-0.116,0.012-0.229,0.035-0.348,0.035
			c-1.909,0-3.456-1.544-3.456-3.448s1.547-3.448,3.456-3.448c1.908,0,3.456,1.544,3.456,3.448c0,0.204-0.026,0.4-0.06,0.594h6.162
			c-0.034-0.194-0.06-0.391-0.06-0.594c0-1.904,1.547-3.448,3.456-3.448s3.456,1.544,3.456,3.448c0,1.717-1.261,3.129-2.906,3.393
			c2.674,1.859,4.413,4.815,4.413,8.155c0,0.152-0.018,0.301-0.024,0.452h0.026v-3.646V233.05h-21.953v12.479V248.694z"/>
		<path fill="#3B3BFF" d="M259.229,248.749v0.425h0.023C259.246,249.032,259.229,248.892,259.229,248.749z"/>
		<path fill="#3B3BFF" d="M276.767,240.566c-0.003,0.001-0.007,0.001-0.01,0.001v7.317h-0.016c-0.007,0.144-0.014,0.287-0.032,0.428
			c1.607,0.296,2.826,1.695,2.826,3.385c0,1.904-1.547,3.447-3.456,3.447c-1.393,0-2.586-0.826-3.133-2.011
			c-0.835,0.358-1.762,0.563-2.742,0.563c-1.199,0-2.319-0.304-3.286-0.826c-0.539,1.204-1.744,2.046-3.151,2.046
			c-1.909,0-3.456-1.544-3.456-3.448c0-1.873,1.5-3.39,3.365-3.439c-0.003-0.048-0.005-0.096-0.008-0.145h-0.014v-0.261
			c0-0.003,0-0.006,0-0.009s0-0.006,0-0.009v-7.023c-0.014,0.001-0.028,0.003-0.043,0.004c-2.65,1.855-4.373,4.791-4.382,8.107
			c0,0.01-0.001,0.019-0.001,0.027s0.001,0.018,0.001,0.027c0,0.143,0.017,0.283,0.023,0.425c0.257,5.417,5.054,9.739,10.952,9.739
			s10.695-4.322,10.952-9.739c0.007-0.151,0.024-0.3,0.024-0.452C281.18,245.382,279.441,242.426,276.767,240.566z"/>
		<path fill="#3B3BFF" d="M272.954,238.261c-0.054-0.161-0.103-0.323-0.132-0.493h-6.162c-0.03,0.17-0.079,0.333-0.132,0.493
			H272.954z"/>
		<path fill="#3B3BFF" d="M263.654,247.624v0.261h0.014C263.664,247.798,263.654,247.712,263.654,247.624z"/>
		<path fill="#3B3BFF" d="M276.217,240.622c-0.034,0-0.066-0.009-0.1-0.01v4.397c0.405,0.791,0.638,1.672,0.638,2.605
			c0,0.091-0.01,0.18-0.015,0.27h0.016v-7.317C276.58,240.596,276.402,240.622,276.217,240.622z"/>
		<path fill="#3B3BFF" d="M264.293,245.008v-4.559c-0.206,0.065-0.418,0.109-0.639,0.134v7.023
			C263.656,246.675,263.889,245.797,264.293,245.008z"/>
		<path fill="#3B3BFF" d="M273.303,239.013c-0.147-0.232-0.261-0.486-0.35-0.752h-6.427c-0.089,0.266-0.202,0.52-0.35,0.752H273.303
			z"/>
		<path fill="#3B3BFF" d="M272.705,252.425c-0.76,0.33-1.605,0.521-2.5,0.521c-1.118,0-2.159-0.293-3.051-0.794
			c-0.051,0.252-0.133,0.491-0.235,0.72c0.967,0.522,2.087,0.826,3.286,0.826c0.98,0,1.907-0.205,2.742-0.563
			C272.843,252.908,272.758,252.673,272.705,252.425z"/>
		<path fill="#3B3BFF" d="M264.333,248.077c-0.015-0.125-0.021-0.252-0.027-0.379h-0.012v-0.226c0-0.006-0.001-0.012-0.001-0.018
			s0.001-0.012,0.001-0.018v-2.43c-0.404,0.789-0.637,1.667-0.639,2.599c0,0.003,0,0.006,0,0.009s0,0.006,0,0.009
			c0,0.088,0.01,0.174,0.014,0.261c0.002,0.049,0.004,0.097,0.008,0.145c0.031,0,0.06-0.009,0.091-0.009
			C263.961,248.021,264.147,248.047,264.333,248.077z"/>
		<path fill="#3B3BFF" d="M276.118,245.01v2.688h-0.014c-0.009,0.188-0.027,0.372-0.056,0.554c0.011,0,0.021-0.003,0.032-0.003
			c0.216,0,0.425,0.025,0.63,0.063c0.018-0.141,0.025-0.284,0.032-0.428c0.004-0.09,0.015-0.179,0.015-0.27
			C276.756,246.682,276.522,245.801,276.118,245.01z"/>
		<path fill="#3B3BFF" d="M264.293,245.008v2.43c0.006-1.673,0.819-3.168,2.095-4.172c0.144-0.395,0.356-0.75,0.625-1.062v-0.648
			h0.721c0.544-0.356,1.193-0.567,1.893-0.567c0.699,0,1.348,0.211,1.892,0.567h1.88v1.285c1.634,0.977,2.719,2.677,2.719,4.615
			c0,0.082-0.009,0.162-0.013,0.243h0.014v-2.688v-4.397c-1.187-0.034-2.219-0.662-2.814-1.599h-7.126
			c-0.433,0.681-1.098,1.189-1.884,1.436V245.008z"/>
		<path fill="#3B3BFF" d="M264.293,247.698h0.012c-0.003-0.075-0.012-0.149-0.012-0.226V247.698z"/>
		<path fill="#3B3BFF" d="M273.398,242.84v3.404h-0.057c0.033,0.171,0.057,0.344,0.057,0.523c0,1.637-1.429,2.965-3.193,2.965
			c-1.763,0-3.192-1.328-3.192-2.965c0-0.03,0.008-0.058,0.009-0.087c-0.524-0.604-0.852-1.383-0.852-2.245
			c0-0.413,0.085-0.803,0.218-1.17c-1.276,1.004-2.089,2.499-2.095,4.172c0,0.006-0.001,0.012-0.001,0.018s0.001,0.012,0.001,0.018
			c0,0.076,0.009,0.15,0.012,0.226c0.006,0.127,0.012,0.254,0.027,0.379c1.638,0.271,2.89,1.681,2.89,3.392
			c0,0.233-0.024,0.462-0.069,0.683c0.892,0.501,1.933,0.794,3.051,0.794c0.895,0,1.74-0.19,2.5-0.521
			c-0.051-0.235-0.081-0.478-0.081-0.728c0-1.894,1.53-3.428,3.423-3.445c0.029-0.182,0.047-0.366,0.056-0.554
			c0.004-0.081,0.013-0.161,0.013-0.243C276.117,245.517,275.032,243.816,273.398,242.84z"/>
		<path fill="#3B3BFF" d="M267.733,241.555h-0.721v0.648C267.224,241.956,267.46,241.733,267.733,241.555z"/>
		<path fill="#3B3BFF" d="M273.082,244.436c0,0.299-0.05,0.583-0.121,0.858c0.181,0.291,0.314,0.608,0.38,0.95h0.057v-3.404v-1.285
			h-1.88C272.458,242.171,273.082,243.229,273.082,244.436z"/>
		<path fill="#3B3BFF" d="M269.626,247.884c-1.045,0-1.97-0.473-2.604-1.203c-0.001,0.029-0.009,0.057-0.009,0.087
			c0,1.637,1.429,2.965,3.192,2.965c1.764,0,3.193-1.328,3.193-2.965c0-0.18-0.024-0.353-0.057-0.523
			c-0.066-0.342-0.2-0.659-0.38-0.95C272.576,246.78,271.235,247.884,269.626,247.884z"/>
		<path fill="#FFFFFF" d="M264.293,240.449c0.786-0.246,1.452-0.754,1.884-1.436c0.148-0.232,0.261-0.486,0.35-0.752
			c0.054-0.161,0.103-0.323,0.132-0.493c0.034-0.194,0.06-0.391,0.06-0.594c0-1.904-1.547-3.448-3.456-3.448
			c-1.909,0-3.456,1.544-3.456,3.448s1.547,3.448,3.456,3.448c0.119,0,0.232-0.023,0.348-0.035c0.015-0.001,0.029-0.003,0.043-0.004
			C263.875,240.558,264.087,240.514,264.293,240.449z"/>
		<path fill="#FFFFFF" d="M273.303,239.013c0.596,0.938,1.628,1.565,2.814,1.599c0.034,0.001,0.065,0.01,0.1,0.01
			c0.185,0,0.363-0.026,0.54-0.055c0.003,0,0.006,0,0.01-0.001c1.646-0.264,2.906-1.676,2.906-3.393
			c0-1.904-1.547-3.448-3.456-3.448s-3.456,1.544-3.456,3.448c0,0.204,0.026,0.4,0.06,0.594c0.03,0.17,0.079,0.333,0.132,0.493
			C273.042,238.527,273.156,238.781,273.303,239.013z"/>
		<path fill="#FFFFFF" d="M267.022,246.681c0.634,0.73,1.559,1.203,2.604,1.203c1.609,0,2.95-1.104,3.334-2.59
			c0.071-0.275,0.121-0.56,0.121-0.858c0-1.206-0.623-2.265-1.563-2.881c-0.544-0.356-1.193-0.567-1.892-0.567
			c-0.7,0-1.349,0.211-1.893,0.567c-0.273,0.179-0.509,0.401-0.721,0.648c-0.268,0.312-0.481,0.668-0.625,1.062
			c-0.133,0.367-0.218,0.757-0.218,1.17C266.17,245.298,266.498,246.076,267.022,246.681z"/>
		<path fill="#FFFFFF" d="M267.154,252.151c0.044-0.221,0.069-0.449,0.069-0.683c0-1.711-1.252-3.121-2.89-3.392
			c-0.185-0.03-0.372-0.057-0.565-0.057c-0.031,0-0.06,0.009-0.091,0.009c-1.866,0.05-3.365,1.566-3.365,3.439
			c0,1.904,1.547,3.448,3.456,3.448c1.407,0,2.612-0.842,3.151-2.046C267.021,252.643,267.103,252.403,267.154,252.151z"/>
		<path fill="#FFFFFF" d="M276.08,248.249c-0.011,0-0.021,0.003-0.032,0.003c-1.894,0.018-3.423,1.552-3.423,3.445
			c0,0.25,0.03,0.492,0.081,0.728c0.053,0.248,0.138,0.483,0.242,0.709c0.547,1.185,1.74,2.011,3.133,2.011
			c1.909,0,3.456-1.543,3.456-3.447c0-1.689-1.219-3.089-2.826-3.385C276.505,248.274,276.295,248.249,276.08,248.249z"/>
		<path fill="#3B3BFF" d="M207.388,248.849c0.002-1.16,0.208-2.273,0.576-3.319V233.05h21.953v12.479
			c0.371,1.052,0.578,2.172,0.578,3.338c0,0.16-0.019,0.316-0.026,0.476h0.028v-11.847v-5.126h-7.447h-7.794h-7.867v11.93V248.849z"
			/>
		<path fill="#3B3BFF" d="M207.388,249.342h0.025c-0.007-0.152-0.024-0.303-0.025-0.458V249.342z"/>
		<path fill="#3B3BFF" d="M230.468,249.342c0.007-0.159,0.026-0.315,0.026-0.476c0-1.166-0.207-2.286-0.578-3.338v3.646h-0.026
			c-0.257,5.417-5.054,9.739-10.952,9.739c-5.897,0-10.694-4.322-10.951-9.739h-0.023v-0.435c0-0.006-0.001-0.012-0.001-0.018
			s0.001-0.012,0.001-0.018v-3.175c-0.369,1.046-0.574,2.159-0.576,3.319c0,0.006-0.001,0.012-0.001,0.018s0.001,0.012,0.001,0.018
			c0,0.155,0.018,0.306,0.025,0.458c0.27,5.702,5.32,10.252,11.528,10.252c1.837,0,3.567-0.408,5.109-1.117
			C227.719,256.792,230.278,253.356,230.468,249.342z"/>
		<path fill="#3B3BFF" d="M207.964,249.174h0.023c-0.007-0.145-0.023-0.288-0.023-0.435V249.174z"/>
		<path fill="#3B3BFF" d="M207.964,248.704c0.006-3.321,1.73-6.261,4.383-8.117c-0.116,0.012-0.229,0.035-0.348,0.035
			c-1.909,0-3.456-1.544-3.456-3.448s1.547-3.448,3.456-3.448c1.908,0,3.456,1.544,3.456,3.448c0,0.204-0.026,0.4-0.06,0.594h6.162
			c-0.034-0.194-0.06-0.391-0.06-0.594c0-1.904,1.547-3.448,3.456-3.448s3.456,1.544,3.456,3.448c0,1.717-1.26,3.129-2.906,3.393
			c2.674,1.859,4.413,4.815,4.413,8.155c0,0.152-0.018,0.301-0.024,0.452h0.026v-3.646V233.05h-21.953v12.479V248.704z"/>
		<path fill="#3B3BFF" d="M229.915,248.722c0-3.34-1.739-6.296-4.413-8.155c-0.003,0.001-0.006,0.001-0.01,0.001v7.317h-0.016
			c-0.007,0.144-0.014,0.287-0.032,0.428c1.607,0.296,2.826,1.695,2.826,3.385c0,1.904-1.547,3.447-3.456,3.447
			c-1.393,0-2.586-0.826-3.133-2.011c-0.835,0.358-1.762,0.563-2.742,0.563c-1.199,0-2.32-0.304-3.287-0.826
			c-0.539,1.204-1.744,2.046-3.151,2.046c-1.909,0-3.456-1.544-3.456-3.448c0-1.873,1.5-3.39,3.365-3.439
			c-0.003-0.048-0.005-0.096-0.008-0.145h-0.014v-0.252c0-0.006-0.001-0.012-0.001-0.018s0.001-0.012,0.001-0.018v-7.015
			c-0.014,0.001-0.028,0.003-0.043,0.004c-2.653,1.856-4.376,4.796-4.383,8.117c0,0.006-0.001,0.012-0.001,0.018
			s0.001,0.012,0.001,0.018c0,0.146,0.017,0.29,0.023,0.435c0.257,5.417,5.054,9.739,10.951,9.739
			c5.897,0,10.695-4.322,10.952-9.739C229.897,249.022,229.915,248.874,229.915,248.722z"/>
		<path fill="#3B3BFF" d="M221.688,238.261c-0.054-0.161-0.103-0.323-0.132-0.493h-6.162c-0.03,0.17-0.079,0.333-0.132,0.493
			H221.688z"/>
		<path fill="#3B3BFF" d="M212.39,247.885h0.014c-0.004-0.084-0.013-0.167-0.014-0.252V247.885z"/>
		<path fill="#3B3BFF" d="M213.028,245.008v-4.559c-0.206,0.065-0.418,0.109-0.638,0.134v7.015
			C212.393,246.67,212.625,245.794,213.028,245.008z"/>
		<path fill="#3B3BFF" d="M224.952,240.622c-0.034,0-0.066-0.009-0.1-0.01v4.397c0.405,0.791,0.638,1.672,0.638,2.605
			c0,0.091-0.01,0.18-0.015,0.27h0.016v-7.317C225.315,240.596,225.137,240.622,224.952,240.622z"/>
		<path fill="#3B3BFF" d="M222.038,239.013c-0.147-0.232-0.261-0.486-0.35-0.752h-6.427c-0.089,0.266-0.202,0.52-0.35,0.752H222.038
			z"/>
		<path fill="#3B3BFF" d="M221.439,252.425c-0.76,0.33-1.605,0.521-2.5,0.521c-1.118,0-2.159-0.293-3.051-0.794
			c-0.051,0.252-0.133,0.491-0.235,0.72c0.967,0.522,2.087,0.826,3.287,0.826c0.98,0,1.907-0.205,2.742-0.563
			C221.578,252.908,221.493,252.673,221.439,252.425z"/>
		<path fill="#3B3BFF" d="M213.067,248.077c-0.015-0.125-0.021-0.252-0.027-0.379h-0.012v-0.226c0-0.006-0.001-0.012-0.001-0.018
			s0.001-0.012,0.001-0.018v-2.43c-0.403,0.786-0.635,1.662-0.638,2.59c0,0.006-0.001,0.012-0.001,0.018s0.001,0.012,0.001,0.018
			c0,0.085,0.01,0.168,0.014,0.252c0.002,0.049,0.004,0.097,0.008,0.145c0.031,0,0.06-0.009,0.091-0.009
			C212.696,248.021,212.882,248.047,213.067,248.077z"/>
		<path fill="#3B3BFF" d="M224.853,245.01v2.688h-0.014c-0.009,0.188-0.027,0.372-0.056,0.554c0.011,0,0.021-0.003,0.032-0.003
			c0.216,0,0.425,0.025,0.63,0.063c0.018-0.141,0.025-0.284,0.032-0.428c0.004-0.09,0.015-0.179,0.015-0.27
			C225.491,246.682,225.257,245.801,224.853,245.01z"/>
		<path fill="#3B3BFF" d="M213.028,245.008v2.43c0.006-1.673,0.819-3.168,2.095-4.172c0.144-0.395,0.356-0.75,0.625-1.062v-0.648
			h0.721c0.544-0.356,1.193-0.567,1.893-0.567s1.348,0.211,1.892,0.567h1.88v1.285c1.634,0.977,2.719,2.677,2.719,4.615
			c0,0.082-0.009,0.162-0.013,0.243h0.014v-2.688v-4.397c-1.187-0.034-2.219-0.662-2.814-1.599h-7.126
			c-0.433,0.681-1.098,1.189-1.884,1.436V245.008z"/>
		<path fill="#3B3BFF" d="M213.028,247.698h0.012c-0.003-0.075-0.012-0.149-0.012-0.226V247.698z"/>
		<path fill="#3B3BFF" d="M222.133,242.84v3.404h-0.057c0.033,0.171,0.057,0.344,0.057,0.523c0,1.637-1.429,2.965-3.193,2.965
			c-1.763,0-3.192-1.328-3.192-2.965c0-0.03,0.008-0.058,0.009-0.087c-0.524-0.604-0.852-1.383-0.852-2.245
			c0-0.413,0.084-0.803,0.218-1.17c-1.276,1.004-2.089,2.499-2.095,4.172c0,0.006-0.001,0.012-0.001,0.018s0.001,0.012,0.001,0.018
			c0,0.076,0.009,0.15,0.012,0.226c0.006,0.127,0.012,0.254,0.027,0.379c1.638,0.271,2.89,1.681,2.89,3.392
			c0,0.233-0.024,0.462-0.069,0.683c0.892,0.501,1.933,0.794,3.051,0.794c0.895,0,1.74-0.19,2.5-0.521
			c-0.051-0.235-0.081-0.478-0.081-0.728c0-1.894,1.53-3.428,3.423-3.445c0.029-0.182,0.047-0.366,0.056-0.554
			c0.004-0.081,0.013-0.161,0.013-0.243C224.852,245.517,223.767,243.816,222.133,242.84z"/>
		<path fill="#3B3BFF" d="M216.468,241.555h-0.721v0.648C215.959,241.956,216.195,241.733,216.468,241.555z"/>
		<path fill="#3B3BFF" d="M221.816,244.436c0,0.299-0.05,0.583-0.121,0.858c0.181,0.291,0.314,0.608,0.381,0.95h0.057v-3.404v-1.285
			h-1.88C221.193,242.171,221.816,243.229,221.816,244.436z"/>
		<path fill="#3B3BFF" d="M221.695,245.294c-0.384,1.486-1.725,2.59-3.334,2.59c-1.045,0-1.97-0.473-2.604-1.203
			c-0.001,0.029-0.009,0.057-0.009,0.087c0,1.637,1.429,2.965,3.192,2.965c1.764,0,3.193-1.328,3.193-2.965
			c0-0.18-0.024-0.353-0.057-0.523C222.01,245.902,221.876,245.585,221.695,245.294z"/>
		<path fill="#FFFFFF" d="M213.028,240.449c0.786-0.246,1.452-0.754,1.884-1.436c0.148-0.232,0.261-0.486,0.35-0.752
			c0.054-0.161,0.103-0.323,0.132-0.493c0.034-0.194,0.06-0.391,0.06-0.594c0-1.904-1.547-3.448-3.456-3.448
			c-1.909,0-3.456,1.544-3.456,3.448s1.547,3.448,3.456,3.448c0.119,0,0.232-0.023,0.348-0.035c0.015-0.001,0.029-0.003,0.043-0.004
			C212.61,240.558,212.822,240.514,213.028,240.449z"/>
		<path fill="#FFFFFF" d="M222.038,239.013c0.596,0.938,1.628,1.565,2.814,1.599c0.034,0.001,0.065,0.01,0.1,0.01
			c0.185,0,0.363-0.026,0.54-0.055c0.003,0,0.006,0,0.01-0.001c1.646-0.264,2.906-1.676,2.906-3.393
			c0-1.904-1.547-3.448-3.456-3.448s-3.456,1.544-3.456,3.448c0,0.204,0.026,0.4,0.06,0.594c0.03,0.17,0.079,0.333,0.132,0.493
			C221.777,238.527,221.891,238.781,222.038,239.013z"/>
		<path fill="#FFFFFF" d="M214.905,244.436c0,0.862,0.328,1.641,0.852,2.245c0.634,0.73,1.559,1.203,2.604,1.203
			c1.61,0,2.95-1.104,3.334-2.59c0.071-0.275,0.121-0.56,0.121-0.858c0-1.206-0.623-2.265-1.563-2.881
			c-0.544-0.356-1.192-0.567-1.892-0.567s-1.349,0.211-1.893,0.567c-0.273,0.179-0.509,0.401-0.721,0.648
			c-0.269,0.312-0.481,0.668-0.625,1.062C214.989,243.633,214.905,244.022,214.905,244.436z"/>
		<path fill="#FFFFFF" d="M215.889,252.151c0.044-0.221,0.069-0.449,0.069-0.683c0-1.711-1.252-3.121-2.89-3.392
			c-0.185-0.03-0.372-0.057-0.565-0.057c-0.031,0-0.06,0.009-0.091,0.009c-1.866,0.05-3.365,1.566-3.365,3.439
			c0,1.904,1.547,3.448,3.456,3.448c1.407,0,2.612-0.842,3.151-2.046C215.756,252.643,215.838,252.403,215.889,252.151z"/>
		<path fill="#FFFFFF" d="M224.814,248.249c-0.011,0-0.021,0.003-0.032,0.003c-1.894,0.018-3.423,1.552-3.423,3.445
			c0,0.25,0.03,0.492,0.081,0.728c0.053,0.248,0.138,0.483,0.242,0.709c0.547,1.185,1.74,2.011,3.133,2.011
			c1.909,0,3.456-1.543,3.456-3.447c0-1.689-1.219-3.089-2.826-3.385C225.24,248.274,225.03,248.249,224.814,248.249z"/>
	</g>
</g>
</svg>
