<?xml version="1.0" encoding="utf-8"?>
<!-- Generator: Adobe Illustrator 15.0.0, SVG Export Plug-In . SVG Version: 6.00 Build 0)  -->
<!DOCTYPE svg PUBLIC "-//W3C//DTD SVG 1.1//EN" "http://www.w3.org/Graphics/SVG/1.1/DTD/svg11.dtd">
<svg version="1.1" id="Layer_1" xmlns="http://www.w3.org/2000/svg" xmlns:xlink="http://www.w3.org/1999/xlink" x="0px" y="0px"
	 width="80px" height="50px" viewBox="0 0 80 50" enable-background="new 0 0 80 50" xml:space="preserve">
<path fill="#009DE0" d="M80,47.279C80,48.775,78.439,50,76.535,50H3.467C1.56,50,0,48.775,0,47.279V2.722C0,1.226,1.56,0,3.467,0
	h73.068c1.904,0,3.459,1.198,3.459,2.722v44.557H80z"/>
<path fill="#FFFFFF" d="M69.982,15.94h5.701c0,0,0.75,6.226-2.904,6.226c-3.697-0.029-2.791-6.197-2.791-6.226H69.982z"/>
<path fill="#FFFFFF" d="M63.781,22.959h5.701c0,0,0.748,6.229-2.903,6.229c-3.698-0.015-2.777-6.269-2.777-6.229H63.781z"/>
<path fill="#FFFFFF" d="M69.982,30.091h5.701c0,0,0.75,6.229-2.904,6.229c-3.697-0.021-2.791-6.188-2.791-6.229H69.982z"/>
<path fill="#FFFFFF" d="M70.109,22.959h5.445c0,0,0.752,6.229-2.772,6.229c-3.523,0-2.673-6.269-2.699-6.229H70.109z"/>
<path fill="#FFFFFF" d="M80.096,22.959h-3.761c0,0-0.899,6.255,2.812,6.229c0.367,0,0.682-0.078,0.963-0.188v-6.042L80.096,22.959
	L80.096,22.959z"/>
<path fill="#FFFFFF" d="M63.699,37.1c-0.954,0.063-1.865,0.102-2.68,0.102c-4.957,0-6.551-1.531-6.551-5.155V18.977
	c0-3.625,1.594-5.155,6.551-5.155c0.813,0,1.726,0.038,2.68,0.101V8.094c-0.969-0.059-1.94-0.092-2.907-0.092
	c-9.455,0-13.5,3.625-13.5,9.852v15.313c0,6.228,4.045,9.853,13.5,9.853c0.967,0,1.938-0.033,2.907-0.092V37.1z"/>
</svg>
