<?xml version="1.0" encoding="utf-8"?>
<!-- Generator: Adobe Illustrator 15.0.0, SVG Export Plug-In . SVG Version: 6.00 Build 0)  -->
<!DOCTYPE svg PUBLIC "-//W3C//DTD SVG 1.1//EN" "http://www.w3.org/Graphics/SVG/1.1/DTD/svg11.dtd">
<svg version="1.1" id="Layer_1" xmlns="http://www.w3.org/2000/svg" xmlns:xlink="http://www.w3.org/1999/xlink" x="0px" y="0px"
	 width="80px" height="50px" viewBox="0 0 80 50" enable-background="new 0 0 80 50" xml:space="preserve">
<g>
	<g>
		<path fill="#009DE0" d="M0,3.968C0,1.786,1.903,0,4.23,0h71.538C78.096,0,80,1.786,80,3.968v42.065C80,48.215,78.096,50,75.768,50
			H4.23C1.903,50,0,48.215,0,46.033V3.968z"/>
	</g>
</g>
<g>
	<polygon fill="#FFFFFF" points="38.408,10.886 40.011,9.716 41.613,10.886 41.004,8.993 42.635,7.823 40.625,7.823 40.011,5.907 
		39.396,7.825 37.39,7.823 39.018,8.993 	"/>
	<polygon fill="#FFFFFF" points="30.108,13.115 31.712,11.946 33.314,13.115 32.705,11.223 34.333,10.053 32.325,10.053 
		31.711,8.134 31.097,10.055 29.089,10.053 30.717,11.223 	"/>
	<polygon fill="#FFFFFF" points="25.64,14.221 25.025,16.141 23.018,16.139 24.646,17.309 24.036,19.202 25.64,18.032 
		27.242,19.202 26.632,17.309 28.26,16.139 26.253,16.139 	"/>
	<polygon fill="#FFFFFF" points="23.412,26.32 25.014,27.491 24.405,25.598 26.033,24.428 24.025,24.428 23.412,22.509 
		22.797,24.432 20.789,24.428 22.418,25.598 21.808,27.491 	"/>
	<polygon fill="#FFFFFF" points="26.253,32.742 25.64,30.824 25.025,32.744 23.018,32.742 24.646,33.912 24.036,35.805 
		25.64,34.633 27.242,35.805 26.632,33.912 28.26,32.742 	"/>
	<polygon fill="#FFFFFF" points="32.338,38.828 31.723,36.91 31.109,38.828 29.103,38.828 30.729,39.998 30.12,41.891 
		31.724,40.719 33.327,41.891 32.718,39.998 34.345,38.828 	"/>
	<polygon fill="#FFFFFF" points="40.625,41.029 40.012,39.113 39.399,41.031 37.391,41.029 39.019,42.201 38.41,44.094 
		40.013,42.924 41.615,44.094 41.006,42.201 42.635,41.029 	"/>
	<polygon fill="#FFFFFF" points="48.914,38.828 48.301,36.91 47.686,38.828 45.682,38.828 47.309,39.998 46.697,41.891 
		48.301,40.719 49.906,41.891 49.295,39.998 50.923,38.828 	"/>
	<polygon fill="#FFFFFF" points="55.001,32.742 54.385,30.824 53.771,32.744 51.766,32.742 53.396,33.912 52.781,35.805 
		54.385,34.633 55.988,35.805 55.378,33.912 57.009,32.742 	"/>
	<polygon fill="#FFFFFF" points="59.211,24.404 57.204,24.404 56.589,22.487 55.975,24.407 53.967,24.404 55.598,25.576 
		54.984,27.468 56.589,26.295 58.193,27.468 57.582,25.576 	"/>
	<polygon fill="#FFFFFF" points="52.781,19.177 54.385,18.007 55.988,19.177 55.378,17.285 57.009,16.115 55.001,16.115 
		54.385,14.199 53.771,16.118 51.766,16.115 53.396,17.285 	"/>
	<polygon fill="#FFFFFF" points="48.324,8.137 47.711,10.057 45.704,10.053 47.328,11.225 46.721,13.117 48.327,11.946 
		49.93,13.117 49.32,11.225 50.947,10.053 48.939,10.053 	"/>
</g>
<g enable-background="new    ">
	<path fill="#FFFFFF" d="M35.716,30.027h-0.953V19.275h0.953V30.027z"/>
	<path fill="#FFFFFF" d="M42.252,19.275c2.616,0,3.358,1.356,3.358,3.181v4.391c0,1.824-0.742,3.181-3.358,3.181h-3.551V19.275
		H42.252z M39.653,29.172h2.615c1.808,0,2.39-0.743,2.39-2.276v-4.488c0-1.533-0.582-2.276-2.39-2.276h-2.615V29.172z"/>
</g>
</svg>
